<svg width="400" height="400" viewBox="0 0 400 400" fill="none" xmlns="http://www.w3.org/2000/svg">
<path fill-rule="evenodd" clip-rule="evenodd" d="M85.9866 78.2769H87.6938V32.8185L142.609 1.41703L141.756 0L85.9866 31.8549V78.2769ZM252.993 104.004L313.843 138.926L313.651 162.336L296.552 172.203L255.342 148.562L215.109 171.768V125.771L252.993 104.004ZM213.459 125.764L171.91 103.123L170.193 104.116L169.811 149.355L130.618 171.973L130.659 282.103L146.364 291.774V255.204L193.653 282.864V320.895L198.037 323.594L255.342 290.529V243.689L216.361 266.062L171.916 241.859L213.459 218.792V125.764ZM312.875 257.333L256.993 289.577V242.742L257.049 242.709L215.109 218.583V173.045L258.074 196.457L274.065 187.269V232.053L313.267 209.43L312.875 257.333ZM193.653 322.878L198.037 325.578L226.551 309.116L268.715 332.436L310.144 308.573L267.626 285.404L314.582 258.297L315.607 138.019L244.152 97.0051L211.581 78.2769L211.552 78.2933L211.524 78.2769L128.974 126.046L128.951 126.059V172.935L128.968 172.925L129.008 283.066L146.364 293.755V293.804L193.653 322.938V322.878ZM148.014 292.79L192.003 319.878V283.828L148.014 258.094V292.79ZM130.602 127.023L130.631 127.006L168.502 105.144L168.104 148.448L130.618 170.091L130.602 127.023ZM298.421 173.275L275.715 186.321V229.219L313.217 207.567L313.615 164.262L298.211 173.155L298.421 173.275ZM255.342 150.489L294.829 173.197L274.065 185.178V185.379L258.017 194.587L217.328 172.425L255.342 150.489ZM211.552 80.2204L239.67 96.3574L251.302 103.047L214.255 124.302L173.589 102.152L189.98 92.6686L211.552 80.2204ZM355.328 235.681V278.759L317.2 300.751V257.673L355.328 235.681ZM357.035 232.79L315.55 256.71V303.642L357.035 279.722V232.79ZM266.041 286.467L306.786 308.686L268.715 330.622L228.368 308.29L266.041 286.467ZM253.749 242.709L214.483 220.15L175.388 241.802L216.361 264.135L253.749 242.709ZM356.921 141.363L396.642 164.206L359.596 185.461L318.907 163.299L356.921 141.363ZM356.921 139.436L315.55 163.356L359.653 187.388L400 164.206L356.921 139.436ZM42.282 176.165L0 151.849V102.253L42.3389 125.322L84.6209 102.31V151.906L42.282 176.165ZM41.4853 173.78L1.65031 150.886V105.03L41.4853 126.703V173.78ZM43.1357 173.748V126.672L82.9136 105.03V150.886L43.1357 173.748ZM1.59357 350.12H3.30079V320.816L50.306 292.419V248.434L92.1897 222.984V187.332H90.5394V222.077L48.6557 247.527V291.455L1.59357 319.909V350.12Z" fill="white" fill-opacity="0.5"/>
<path d="M274.065 44.0981L315.55 20.2352L357.035 44.0981L315.55 66.7139L274.065 44.0981Z" fill="white"/>
<path d="M315.55 66.7139V115.687L274.065 91.8237V44.098L315.55 66.7139Z" fill="#D2D8EB"/>
<path d="M357.035 44.098V91.8237L315.55 115.687V66.7139L357.035 44.098Z" fill="#A4B3D8"/>
<path d="M108.237 44.3815L149.723 20.5187L191.208 44.3815L149.723 66.9974L108.237 44.3815Z" fill="white"/>
<path d="M149.723 66.9973V115.97L108.237 92.1071V44.3815L149.723 66.9973Z" fill="#D2D8EB"/>
<path d="M191.208 44.3815V92.1071L149.723 115.97V66.9973L191.208 44.3815Z" fill="#A4B3D8"/>
<path d="M232.522 115.8L274.008 91.937L315.493 115.8L274.008 138.359L232.522 115.8Z" fill="white"/>
<path d="M274.008 138.359V187.332L232.522 163.525V115.8L274.008 138.359Z" fill="#D2D8EB"/>
<path d="M315.493 115.8V163.525L274.008 187.332V138.359L315.493 115.8Z" fill="#A4B3D8"/>
<path d="M274.065 202.749L315.55 178.886L357.035 202.749L315.55 225.308L274.065 202.749Z" fill="white"/>
<path d="M315.55 225.308V274.281L274.065 250.418V202.749L315.55 225.308Z" fill="#D2D8EB"/>
<path d="M357.035 202.749V250.418L315.55 274.281V225.308L357.035 202.749Z" fill="#A4B3D8"/>
<path d="M107.554 185.235L149.04 161.372L190.525 185.235L149.04 207.85L107.554 185.235Z" fill="white"/>
<path d="M149.04 207.85V256.823L107.554 232.96V185.234L149.04 207.85Z" fill="#D2D8EB"/>
<path d="M190.525 185.234V232.96L149.04 256.823V207.85L190.525 185.234Z" fill="#A4B3D8"/>
<path d="M66.0692 256.653L107.554 232.79L149.04 256.653L107.554 279.212L66.0692 256.653Z" fill="white"/>
<path d="M107.554 279.212V328.241L66.0692 304.379V256.653L107.554 279.212Z" fill="#D2D8EB"/>
<path d="M149.04 256.653V304.379L107.554 328.241V279.212L149.04 256.653Z" fill="#A4B3D8"/>
<path d="M274.065 327.505L315.55 303.642L357.035 327.505L315.55 350.12L274.065 327.505Z" fill="white"/>
<path d="M315.55 350.12V399.093L274.065 375.23V327.505L315.55 350.12Z" fill="#D2D8EB"/>
<path d="M357.035 327.505V375.23L315.55 399.093V350.12L357.035 327.505Z" fill="#A4B3D8"/>
<path d="M191.151 327.561L232.579 303.698L274.065 327.561L232.579 350.12L191.151 327.561Z" fill="white"/>
<path d="M232.579 350.12V399.093L191.151 375.23V327.561L232.579 350.12Z" fill="#D2D8EB"/>
<path d="M274.065 327.561V375.23L232.579 399.093V350.12L274.065 327.561Z" fill="#A4B3D8"/>
<path d="M24.9254 328.411L66.4106 304.549L107.896 328.411L66.4106 351.027L24.9254 328.411Z" fill="white"/>
<path d="M66.4106 351.027V400L24.9254 376.137V328.411L66.4106 351.027Z" fill="#D2D8EB"/>
<path d="M107.896 328.411V376.137L66.4106 400V351.027L107.896 328.411Z" fill="#A4B3D8"/>
</svg>
