<svg width="161" height="204" viewBox="0 0 161 204" fill="none" xmlns="http://www.w3.org/2000/svg">
<mask id="mask0" mask-type="alpha" maskUnits="userSpaceOnUse" x="0" y="0" width="161" height="204">
<rect width="161" height="204" fill="#C4C4C4"/>
</mask>
<g mask="url(#mask0)">
</g>
<g clip-path="url(#clip0)">
<path fill-rule="evenodd" clip-rule="evenodd" d="M43.8531 39.9212H44.7237V16.7374L72.7306 0.722687L72.2952 0L43.8531 16.246V39.9212ZM129.027 53.0419L160.06 70.8523L159.963 82.7907L151.241 87.8231L130.224 75.7664L109.705 87.6021V64.144L129.027 53.0419ZM108.863 64.1392L87.6743 52.593L86.799 53.0994L86.6038 76.1713L66.6157 87.7062L66.6363 143.873L74.6455 148.805V130.154L98.7634 144.261V163.656L100.999 165.033L130.225 148.17V124.282L110.345 135.692L87.6782 123.348L108.863 111.585V64.1392ZM159.567 131.24L131.066 147.684V123.799L131.096 123.782L109.705 111.476V88.2523L131.618 100.193L139.773 95.5075V118.347L159.766 106.809L159.567 131.24ZM98.7634 164.668L100.999 166.045L115.541 157.65L137.045 169.542L158.174 157.372L136.49 145.556L160.437 131.731L160.96 70.3897L124.279 49.3355L107.906 39.9213L107.892 39.9295L107.877 39.9213L65.7656 64.2903V88.1968L65.7742 88.1918L65.7946 144.364L74.6455 149.815V149.84L98.7634 164.698V164.668ZM75.4872 149.323L97.9217 163.138V144.752L75.4872 131.628V149.323ZM66.6072 64.7817L66.6153 86.7468L85.7332 75.7088L85.9363 53.6235L66.6072 64.7817ZM152.195 88.3701L140.614 95.0239V116.902L159.74 105.859L159.943 83.7738L152.088 88.3087L152.195 88.3701ZM130.224 76.7493L150.363 88.3301L139.773 94.4406V94.5437L131.588 99.2393L110.837 87.9364L130.224 76.7493ZM107.892 40.9123L122.031 49.0268L128.164 52.5538L109.27 63.3941L88.5305 52.0976L97.0417 47.1733L107.892 40.9123ZM181.217 120.197V142.167L161.772 153.383V131.413L181.217 120.197ZM182.088 118.723L160.931 130.922V154.857L182.088 142.658V118.723ZM135.681 146.098L156.461 157.43L137.045 168.617L116.468 157.228L135.681 146.098ZM129.413 123.782L109.387 112.277L89.4485 123.319L110.345 134.709L129.413 123.782ZM182.03 72.0952L202.288 83.7449L183.394 94.5852L162.643 83.2823L182.03 72.0952ZM182.03 71.1123L160.931 83.3113L183.423 95.568L204 83.7449L182.03 71.1123ZM21.5638 89.8445L0 77.4432V52.1492L21.5928 63.9145L43.1566 52.1781V77.4721L21.5638 89.8445ZM21.1582 88.6285L0.841656 76.9518V53.5657L21.1582 64.6189V88.6285ZM21.9999 88.611V64.6023L42.286 53.5657V76.9518L21.9999 88.611ZM0.812932 178.561H1.68361V163.616L25.6563 149.134V126.701L47.0169 113.722V95.5392H46.1753V113.259L24.8146 126.239V148.642L0.812932 163.154V178.561Z" fill="white" fill-opacity="0.5"/>
<path d="M139.774 22.4901L160.931 10.3201L182.089 22.4901L160.931 34.0242L139.774 22.4901Z" fill="white"/>
<path d="M160.931 34.0241V59.0001L139.774 46.8301V22.49L160.931 34.0241Z" fill="#D2D8EB"/>
<path d="M182.09 22.49V46.8301L160.932 59.0001V34.0241L182.09 22.49Z" fill="#A4B3D8"/>
<path d="M55.2012 22.6346L76.3587 10.4646L97.5161 22.6346L76.3587 34.1687L55.2012 22.6346Z" fill="white"/>
<path d="M76.3587 34.1686V59.1446L55.2012 46.9746V22.6345L76.3587 34.1686Z" fill="#D2D8EB"/>
<path d="M97.5169 22.6345V46.9746L76.3594 59.1447V34.1686L97.5169 22.6345Z" fill="#A4B3D8"/>
<path d="M118.586 59.058L139.744 46.8879L160.901 59.058L139.744 70.5632L118.586 59.058Z" fill="white"/>
<path d="M139.744 70.5633V95.5394L118.586 83.3982V59.0581L139.744 70.5633Z" fill="#D2D8EB"/>
<path d="M160.902 59.0581V83.3982L139.745 95.5394V70.5633L160.902 59.0581Z" fill="#A4B3D8"/>
<path d="M139.774 103.402L160.931 91.2319L182.089 103.402L160.931 114.907L139.774 103.402Z" fill="white"/>
<path d="M160.931 114.907V139.883L139.774 127.713V103.402L160.931 114.907Z" fill="#D2D8EB"/>
<path d="M182.09 103.402V127.713L160.932 139.883V114.907L182.09 103.402Z" fill="#A4B3D8"/>
<path d="M54.8525 94.4696L76.01 82.2996L97.1675 94.4696L76.01 106.004L54.8525 94.4696Z" fill="white"/>
<path d="M76.01 106.004V130.98L54.8525 118.81V94.4697L76.01 106.004Z" fill="#D2D8EB"/>
<path d="M97.1682 94.4697V118.81L76.0107 130.98V106.004L97.1682 94.4697Z" fill="#A4B3D8"/>
<path d="M33.6958 130.893L54.8533 118.723L76.0108 130.893L54.8533 142.398L33.6958 130.893Z" fill="white"/>
<path d="M54.8533 142.398V167.403L33.6958 155.233V130.893L54.8533 142.398Z" fill="#D2D8EB"/>
<path d="M76.01 130.893V155.233L54.8525 167.403V142.398L76.01 130.893Z" fill="#A4B3D8"/>
<path d="M139.774 167.027L160.931 154.857L182.089 167.027L160.931 178.561L139.774 167.027Z" fill="white"/>
<path d="M160.931 178.561V203.537L139.774 191.367V167.027L160.931 178.561Z" fill="#D2D8EB"/>
<path d="M182.09 167.027V191.367L160.932 203.537V178.561L182.09 167.027Z" fill="#A4B3D8"/>
<path d="M97.4883 167.056L118.617 154.886L139.774 167.056L118.617 178.561L97.4883 167.056Z" fill="white"/>
<path d="M118.617 178.561V203.537L97.4883 191.367V167.056L118.617 178.561Z" fill="#D2D8EB"/>
<path d="M139.775 167.056V191.367L118.617 203.537V178.561L139.775 167.056Z" fill="#A4B3D8"/>
<path d="M12.7119 167.49L33.8694 155.32L55.0269 167.49L33.8694 179.024L12.7119 167.49Z" fill="white"/>
<path d="M33.8694 179.024V204L12.7119 191.83V167.49L33.8694 179.024Z" fill="#D2D8EB"/>
<path d="M55.0261 167.49V191.83L33.8687 204V179.024L55.0261 167.49Z" fill="#A4B3D8"/>
</g>
<defs>
<clipPath id="clip0">
<rect width="204" height="204" fill="white"/>
</clipPath>
</defs>
</svg>
