<svg width="28" height="28" viewBox="0 0 28 28" fill="none" xmlns="http://www.w3.org/2000/svg">
<path d="M21.6571 4H6.34295C5.05147 4 4 5.01195 4 6.26602V21.138C4 22.392 5.05137 23.404 6.34286 23.404H19.3028L18.6971 21.369L20.16 22.678L21.5428 23.91L24 26V6.26602C24 5.01195 22.9486 4 21.6571 4ZM17.2457 18.3661C17.2457 18.3661 16.8343 17.8931 16.4914 17.475C17.9886 17.068 18.56 16.166 18.56 16.166C18.0914 16.4631 17.6457 16.6721 17.2457 16.8149C16.6743 17.046 16.1257 17.1999 15.5886 17.288C14.4914 17.4859 13.4856 17.431 12.6286 17.2769C11.9771 17.1558 11.4171 16.9799 10.9485 16.804C10.6856 16.7049 10.3999 16.584 10.1142 16.43C10.0799 16.408 10.0457 16.3969 10.0114 16.375C9.98855 16.364 9.97702 16.3531 9.96566 16.342C9.75998 16.232 9.6457 16.155 9.6457 16.155C9.6457 16.155 10.1943 17.035 11.6457 17.453C11.3028 17.871 10.88 18.366 10.88 18.366C8.35421 18.289 7.39432 16.6941 7.39432 16.6941C7.39432 13.152 9.04002 10.281 9.04002 10.281C10.6857 9.09297 12.2515 9.12602 12.2515 9.12602L12.3658 9.25805C10.3086 9.82991 9.35998 10.699 9.35998 10.699C9.35998 10.699 9.61136 10.567 10.0342 10.38C11.2571 9.86297 12.2286 9.72 12.6286 9.68704C12.6971 9.67602 12.7543 9.665 12.8229 9.665C13.5887 9.56901 14.3638 9.56161 15.1315 9.64305C16.2171 9.76407 17.3829 10.072 18.5714 10.699C18.5714 10.699 17.6686 9.87398 15.7257 9.30204L15.8857 9.12611C15.8857 9.12611 17.4514 9.09305 19.0972 10.2811C19.0972 10.2811 20.7429 13.152 20.7429 16.6941C20.7429 16.694 19.7714 18.289 17.2457 18.3661ZM11.9314 13.229C11.28 13.229 10.7658 13.779 10.7658 14.4499C10.7658 15.1209 11.2914 15.6709 11.9314 15.6709C12.5829 15.6709 13.0971 15.1209 13.0971 14.4499C13.1086 13.779 12.5829 13.229 11.9314 13.229ZM16.1029 13.229C15.4515 13.229 14.9372 13.779 14.9372 14.4499C14.9372 15.1209 15.463 15.6709 16.1029 15.6709C16.7543 15.6709 17.2686 15.1209 17.2686 14.4499C17.2685 13.779 16.7543 13.229 16.1029 13.229Z" fill="white"/>
</svg>
