<svg width="28" height="28" viewBox="0 0 28 28" fill="none" xmlns="http://www.w3.org/2000/svg">
<path fill-rule="evenodd" clip-rule="evenodd" d="M4 14.2531C4 8.59038 8.4779 4 14.0001 4C19.5227 4 24 8.59038 24 14.2532C24 18.7818 21.1383 22.6238 17.1671 23.981C16.6601 24.0817 16.4802 23.7619 16.4802 23.4891C16.4802 23.3771 16.4814 23.1808 16.4832 22.9184C16.4866 22.3896 16.4918 21.5923 16.4918 20.6754C16.4918 19.7188 16.1723 19.0948 15.8136 18.7766C18.0403 18.5228 20.3797 17.6556 20.3797 13.7176C20.3797 12.5982 19.9917 11.6836 19.3506 10.9656C19.4544 10.7073 19.7968 9.66446 19.2525 8.2522C19.2525 8.2522 18.414 7.97668 16.5052 9.30322C15.706 9.07604 14.8499 8.96216 14.0001 8.95829C13.1502 8.96208 12.2948 9.07596 11.4971 9.30322C9.58611 7.97659 8.74638 8.2522 8.74638 8.2522C8.2034 9.66446 8.54568 10.7073 8.64952 10.9656C8.00977 11.6837 7.61913 12.5983 7.61913 13.7177C7.61913 17.6464 9.95409 18.5256 12.1752 18.7849C11.8893 19.0409 11.63 19.4931 11.5403 20.1559C10.9697 20.4177 9.52218 20.8709 8.63033 19.3035C8.63033 19.3035 8.10156 18.3192 7.09735 18.2468C7.09735 18.2468 6.12165 18.2337 7.02893 18.8702C7.02893 18.8702 7.68435 19.1852 8.13923 20.3704C8.13923 20.3704 8.7263 22.2003 11.5084 21.5801C11.5107 22.0478 11.5145 22.5009 11.5175 22.8558C11.52 23.1509 11.5219 23.378 11.5219 23.489C11.5219 23.7599 11.3384 24.0771 10.8386 23.9823C6.86533 22.6265 4 18.7833 4 14.2531ZM7.57401 18.6368C7.64517 18.6717 7.72347 18.6564 7.7454 18.6055C7.77053 18.5544 7.72917 18.4842 7.65649 18.4508C7.58405 18.4157 7.50583 18.4303 7.48422 18.4827C7.46069 18.5338 7.50149 18.6033 7.57401 18.6368ZM8.03307 19.0082C8.09635 19.0798 8.1896 19.1009 8.2373 19.0555C8.28709 19.0097 8.2744 18.9148 8.20903 18.8425C8.14342 18.7709 8.05299 18.7498 8.00384 18.795C7.95541 18.8412 7.9677 18.9367 8.03307 19.0082ZM8.35134 19.5428C8.41318 19.634 8.51341 19.6749 8.57477 19.6313C8.63733 19.5866 8.63733 19.4773 8.57621 19.3846C8.51349 19.2941 8.41479 19.2547 8.35271 19.2985C8.29006 19.3423 8.29006 19.4517 8.35134 19.5428ZM8.88838 20.2589C8.97383 20.3435 9.09052 20.3601 9.14538 20.2982C9.20392 20.2368 9.17742 20.1187 9.0906 20.0361C9.00443 19.9522 8.88702 19.9348 8.8316 19.9969C8.77659 20.0589 8.801 20.1762 8.88838 20.2589ZM9.63319 20.606C9.74642 20.6401 9.85886 20.6036 9.88295 20.5233C9.90656 20.4416 9.83236 20.3482 9.71944 20.3132C9.60532 20.2768 9.4924 20.3148 9.46887 20.3956C9.44606 20.4768 9.52011 20.5708 9.63319 20.606ZM10.5103 20.7749C10.6292 20.7735 10.7253 20.7033 10.7224 20.6187C10.7224 20.5347 10.625 20.4667 10.5061 20.4691C10.3866 20.4711 10.2927 20.5406 10.2927 20.626C10.294 20.7092 10.3907 20.7776 10.5103 20.7749ZM11.3607 20.7762C11.4787 20.7536 11.5614 20.6689 11.5471 20.5864C11.532 20.5025 11.4262 20.4529 11.308 20.474C11.1921 20.4959 11.1079 20.5806 11.1223 20.6652C11.1372 20.7469 11.2446 20.7979 11.3607 20.7762Z" fill="white"/>
</svg>
