<svg width="116" height="22" viewBox="0 0 116 22" fill="none" xmlns="http://www.w3.org/2000/svg">
<path fill-rule="evenodd" clip-rule="evenodd" d="M12.7639 0L0 21.8647H25.5278L12.7639 0ZM17.7274 17.4104L5.23078 21.7575L12.7639 8.90761L17.7274 17.4104Z" fill="white"/>
<path fill-rule="evenodd" clip-rule="evenodd" d="M48.4071 4.99031H55.4425C58.5866 4.99031 60.9574 7.32467 60.9563 10.4198C60.9563 13.516 58.5856 15.8503 55.4425 15.8503H50.9493V21.6951H48.4071V4.99031ZM50.9493 13.4775H55.4425C57.1503 13.4775 58.4383 12.163 58.4383 10.4208C58.4383 8.64952 57.1787 7.36421 55.4425 7.36421H50.9493V13.4775Z" fill="white"/>
<path d="M67.4982 7.36421H72.6059C74.1401 7.36421 75.3891 8.65159 75.3891 10.2335C75.3891 11.8289 74.1411 13.1267 72.6059 13.1267H70.8381L75.6985 21.6961H78.5322L74.5831 15.0677C76.5939 14.2705 77.9314 12.3535 77.9314 10.2345C77.9314 7.34339 75.5427 4.99134 72.6059 4.99134H64.9559V21.6961H67.4982V7.36421Z" fill="white"/>
<path fill-rule="evenodd" clip-rule="evenodd" d="M81.2839 13.3432C81.2839 8.4882 85.1172 4.68641 90.0123 4.68641C94.9201 4.68641 98.765 8.48924 98.765 13.3432C98.765 18.1972 94.9201 22 90.0123 22C85.1183 22 81.2839 18.1982 81.2839 13.3432ZM83.8019 13.3432C83.8019 16.814 86.5294 19.5324 90.0123 19.5324C93.4953 19.5324 96.2228 16.814 96.2228 13.3432C96.2228 9.80056 93.5532 7.13004 90.0123 7.13004C86.4715 7.13004 83.8019 9.8016 83.8019 13.3432Z" fill="white"/>
<path d="M113.458 4.99031V16.8182L104.351 4.99031H102.316V21.6961H104.859V9.84531L113.965 21.6961H116V4.99031H113.458Z" fill="white"/>
<path d="M38.7368 5.14017L45.6396 21.5733H42.7354L37.2374 8.48299L31.7382 21.5733H28.834L35.7379 5.14017H38.7368Z" fill="white"/>
</svg>
