<svg width="28" height="28" viewBox="0 0 28 28" fill="none" xmlns="http://www.w3.org/2000/svg">
<path d="M8.33281 7C12.3831 7 15.6656 10.1343 15.6656 14.0005C15.6656 17.8666 12.3821 21 8.33281 21C4.28352 21 1 17.8657 1 14.0005C1 10.1353 4.28352 7 8.33281 7ZM20.043 7.41021C22.0681 7.41021 23.7094 10.3606 23.7094 14.0005C23.7094 17.6394 22.0681 20.5908 20.043 20.5908C18.0178 20.5908 16.3766 17.6394 16.3766 14.0005C16.3766 10.3616 18.0178 7.41021 20.043 7.41021ZM25.7102 8.09677C26.4221 8.09677 27 10.74 27 14.0005C27 17.26 26.4231 19.9042 25.7102 19.9042C24.9972 19.9042 24.4213 17.261 24.4213 14.0005C24.4213 10.74 24.9982 8.09677 25.7102 8.09677Z" fill="white"/>
</svg>
