<svg width="120" height="40" viewBox="0 0 120 40" fill="none" xmlns="http://www.w3.org/2000/svg">
<path d="M13.824 18.46V25H15.396V16.72H13.824L12.432 17.764V19.468L13.824 18.46ZM17.3959 24.592C17.8159 24.952 18.3919 25.132 19.1119 25.132C19.8679 25.132 20.4559 24.928 20.8879 24.496C21.3199 24.076 21.5359 23.488 21.5359 22.72V21.94C21.5359 21.172 21.3559 20.584 20.9959 20.176C20.6359 19.768 20.1199 19.552 19.4239 19.552C18.9559 19.552 18.5599 19.684 18.2479 19.936V18.064H21.3679V16.72H16.8919V21.436H18.2479C18.4159 21.064 18.6919 20.872 19.0999 20.872C19.4119 20.872 19.6399 20.968 19.7839 21.16C19.9279 21.352 20.0119 21.64 20.0119 22.024V22.648C20.0119 23.032 19.9279 23.32 19.7839 23.512C19.6399 23.704 19.4119 23.8 19.1119 23.8C18.8239 23.8 18.6079 23.728 18.4519 23.584C18.2839 23.44 18.2119 23.248 18.2119 22.984V22.912H16.7719V23.092C16.7719 23.74 16.9759 24.232 17.3959 24.592ZM22.5927 23.356V26.944L23.9967 25.756V23.356H22.5927ZM25.657 24.424C26.065 24.904 26.689 25.132 27.529 25.132C28.369 25.132 28.981 24.892 29.389 24.412C29.797 23.932 30.001 23.224 30.001 22.276V19.348C30.001 18.436 29.797 17.752 29.389 17.284C28.981 16.828 28.369 16.588 27.529 16.588C26.713 16.588 26.101 16.828 25.681 17.296C25.261 17.764 25.057 18.448 25.057 19.348V22.276C25.057 23.236 25.249 23.944 25.657 24.424ZM28.237 23.404C28.117 23.644 27.877 23.764 27.529 23.764C27.181 23.764 26.941 23.644 26.821 23.404C26.701 23.164 26.641 22.744 26.641 22.144V19.576C26.641 18.988 26.701 18.568 26.821 18.328C26.941 18.088 27.169 17.968 27.529 17.968C27.877 17.968 28.117 18.088 28.237 18.328C28.357 18.568 28.429 18.988 28.429 19.576V22.144C28.429 22.744 28.357 23.164 28.237 23.404ZM31.7977 24.424C32.2057 24.904 32.8297 25.132 33.6697 25.132C34.5097 25.132 35.1217 24.892 35.5297 24.412C35.9377 23.932 36.1417 23.224 36.1417 22.276V19.348C36.1417 18.436 35.9377 17.752 35.5297 17.284C35.1217 16.828 34.5097 16.588 33.6697 16.588C32.8537 16.588 32.2417 16.828 31.8217 17.296C31.4017 17.764 31.1977 18.448 31.1977 19.348V22.276C31.1977 23.236 31.3897 23.944 31.7977 24.424ZM34.3777 23.404C34.2577 23.644 34.0177 23.764 33.6697 23.764C33.3217 23.764 33.0817 23.644 32.9617 23.404C32.8417 23.164 32.7817 22.744 32.7817 22.144V19.576C32.7817 18.988 32.8417 18.568 32.9617 18.328C33.0817 18.088 33.3097 17.968 33.6697 17.968C34.0177 17.968 34.2577 18.088 34.3777 18.328C34.4977 18.568 34.5697 18.988 34.5697 19.576V22.144C34.5697 22.744 34.4977 23.164 34.3777 23.404ZM37.9383 24.424C38.3463 24.904 38.9703 25.132 39.8103 25.132C40.6503 25.132 41.2623 24.892 41.6703 24.412C42.0783 23.932 42.2823 23.224 42.2823 22.276V19.348C42.2823 18.436 42.0783 17.752 41.6703 17.284C41.2623 16.828 40.6503 16.588 39.8103 16.588C38.9943 16.588 38.3823 16.828 37.9623 17.296C37.5423 17.764 37.3383 18.448 37.3383 19.348V22.276C37.3383 23.236 37.5303 23.944 37.9383 24.424ZM40.5183 23.404C40.3983 23.644 40.1583 23.764 39.8103 23.764C39.4623 23.764 39.2223 23.644 39.1023 23.404C38.9823 23.164 38.9223 22.744 38.9223 22.144V19.576C38.9223 18.988 38.9823 18.568 39.1023 18.328C39.2223 18.088 39.4503 17.968 39.8103 17.968C40.1583 17.968 40.3983 18.088 40.5183 18.328C40.6383 18.568 40.7103 18.988 40.7103 19.576V22.144C40.7103 22.744 40.6383 23.164 40.5183 23.404ZM43.3349 23.356V26.944L44.7389 25.756V23.356H43.3349ZM46.3992 24.424C46.8072 24.904 47.4312 25.132 48.2712 25.132C49.1112 25.132 49.7232 24.892 50.1312 24.412C50.5392 23.932 50.7432 23.224 50.7432 22.276V19.348C50.7432 18.436 50.5392 17.752 50.1312 17.284C49.7232 16.828 49.1112 16.588 48.2712 16.588C47.4552 16.588 46.8432 16.828 46.4232 17.296C46.0032 17.764 45.7992 18.448 45.7992 19.348V22.276C45.7992 23.236 45.9912 23.944 46.3992 24.424ZM48.9792 23.404C48.8592 23.644 48.6192 23.764 48.2712 23.764C47.9232 23.764 47.6832 23.644 47.5632 23.404C47.4432 23.164 47.3832 22.744 47.3832 22.144V19.576C47.3832 18.988 47.4432 18.568 47.5632 18.328C47.6832 18.088 47.9112 17.968 48.2712 17.968C48.6192 17.968 48.8592 18.088 48.9792 18.328C49.0992 18.568 49.1712 18.988 49.1712 19.576V22.144C49.1712 22.744 49.0992 23.164 48.9792 23.404ZM52.5398 24.424C52.9478 24.904 53.5718 25.132 54.4118 25.132C55.2518 25.132 55.8638 24.892 56.2718 24.412C56.6798 23.932 56.8838 23.224 56.8838 22.276V19.348C56.8838 18.436 56.6798 17.752 56.2718 17.284C55.8638 16.828 55.2518 16.588 54.4118 16.588C53.5958 16.588 52.9838 16.828 52.5638 17.296C52.1438 17.764 51.9398 18.448 51.9398 19.348V22.276C51.9398 23.236 52.1318 23.944 52.5398 24.424ZM55.1198 23.404C54.9998 23.644 54.7598 23.764 54.4118 23.764C54.0638 23.764 53.8238 23.644 53.7038 23.404C53.5838 23.164 53.5238 22.744 53.5238 22.144V19.576C53.5238 18.988 53.5838 18.568 53.7038 18.328C53.8238 18.088 54.0518 17.968 54.4118 17.968C54.7598 17.968 54.9998 18.088 55.1198 18.328C55.2398 18.568 55.3118 18.988 55.3118 19.576V22.144C55.3118 22.744 55.2398 23.164 55.1198 23.404ZM58.6805 24.424C59.0885 24.904 59.7125 25.132 60.5525 25.132C61.3925 25.132 62.0045 24.892 62.4125 24.412C62.8205 23.932 63.0245 23.224 63.0245 22.276V19.348C63.0245 18.436 62.8205 17.752 62.4125 17.284C62.0045 16.828 61.3925 16.588 60.5525 16.588C59.7365 16.588 59.1245 16.828 58.7045 17.296C58.2845 17.764 58.0805 18.448 58.0805 19.348V22.276C58.0805 23.236 58.2725 23.944 58.6805 24.424ZM61.2605 23.404C61.1405 23.644 60.9005 23.764 60.5525 23.764C60.2045 23.764 59.9645 23.644 59.8445 23.404C59.7245 23.164 59.6645 22.744 59.6645 22.144V19.576C59.6645 18.988 59.7245 18.568 59.8445 18.328C59.9645 18.088 60.1925 17.968 60.5525 17.968C60.9005 17.968 61.1405 18.088 61.2605 18.328C61.3805 18.568 61.4525 18.988 61.4525 19.576V22.144C61.4525 22.744 61.3805 23.164 61.2605 23.404Z" fill="white"/>
<path fill-rule="evenodd" clip-rule="evenodd" d="M100 2H20C10.0589 2 2 10.0589 2 20C2 29.9411 10.0589 38 20 38H100C109.941 38 118 29.9411 118 20C118 10.0589 109.941 2 100 2ZM20 0C8.95431 0 0 8.95431 0 20C0 31.0457 8.95431 40 20 40H100C111.046 40 120 31.0457 120 20C120 8.95431 111.046 0 100 0H20Z" fill="url(#paint0_linear)"/>
<path fill-rule="evenodd" clip-rule="evenodd" d="M76.4967 18.3574L76 16.6217L75.5033 18.3574C75.3496 18.8948 74.8701 19.2583 74.3327 19.2448L72.5971 19.2013L74.0258 20.2305C74.4681 20.5491 74.6512 21.1373 74.4729 21.6663L73.8969 23.3751L75.2765 22.2755C75.7037 21.9351 76.2963 21.9351 76.7235 22.2755L78.1031 23.3751L77.5271 21.6663C77.3488 21.1373 77.5319 20.5491 77.9742 20.2305L79.4029 19.2013L77.6673 19.2448C77.1299 19.2583 76.6504 18.8948 76.4967 18.3574ZM76.571 16.4439C76.4016 15.852 75.5984 15.852 75.429 16.4439L74.9324 18.1796C74.8555 18.4483 74.6157 18.63 74.3471 18.6233L72.6115 18.5797C72.0197 18.5649 71.7714 19.362 72.2586 19.7129L73.6872 20.7421C73.9084 20.9015 73.9999 21.1955 73.9108 21.46L73.3348 23.1689C73.1384 23.7515 73.7882 24.2441 74.2586 23.8692L75.6383 22.7696C75.8518 22.5994 76.1482 22.5994 76.3617 22.7696L77.7413 23.8692C78.2118 24.2441 78.8616 23.7515 78.6652 23.1689L78.0892 21.46C78.0001 21.1955 78.0916 20.9015 78.3128 20.7421L79.7414 19.7129C80.2286 19.362 79.9803 18.5649 79.3885 18.5797L77.6529 18.6233C77.3843 18.63 77.1445 18.4483 77.0676 18.1796L76.571 16.4439Z" fill="white"/>
<path fill-rule="evenodd" clip-rule="evenodd" d="M89.571 16.4439C89.4016 15.852 88.5984 15.852 88.429 16.4439L87.9324 18.1796C87.8555 18.4483 87.6157 18.63 87.3471 18.6233L85.6115 18.5797C85.0197 18.5649 84.7714 19.362 85.2586 19.7129L86.6872 20.7421C86.9084 20.9015 86.9999 21.1955 86.9108 21.46L86.3348 23.1689C86.1384 23.7515 86.7882 24.2441 87.2586 23.8692L88.6383 22.7696C88.8518 22.5994 89.1482 22.5994 89.3617 22.7696L90.7414 23.8692C91.2118 24.2441 91.8616 23.7515 91.6652 23.1689L91.0892 21.46C91.0001 21.1955 91.0916 20.9015 91.3128 20.7421L92.7414 19.7129C93.2286 19.362 92.9803 18.5649 92.3885 18.5797L90.6529 18.6233C90.3843 18.63 90.1445 18.4483 90.0676 18.1796L89.571 16.4439Z" fill="url(#paint1_linear)"/>
<path fill-rule="evenodd" clip-rule="evenodd" d="M102.497 18.3574L102 16.6217L101.503 18.3574C101.35 18.8948 100.87 19.2583 100.333 19.2448L98.5971 19.2013L100.026 20.2305C100.468 20.5491 100.651 21.1373 100.473 21.6663L99.8969 23.3751L101.277 22.2755C101.704 21.9351 102.296 21.9351 102.723 22.2755L104.103 23.3751L103.527 21.6663C103.349 21.1373 103.532 20.5491 103.974 20.2305L105.403 19.2013L103.667 19.2448C103.13 19.2583 102.65 18.8948 102.497 18.3574ZM102.571 16.4439C102.402 15.852 101.598 15.852 101.429 16.4439L100.932 18.1796C100.855 18.4483 100.616 18.63 100.347 18.6233L98.6115 18.5797C98.0197 18.5649 97.7714 19.362 98.2586 19.7129L99.6872 20.7421C99.9084 20.9015 99.9999 21.1955 99.9108 21.46L99.3348 23.1689C99.1384 23.7515 99.7882 24.2441 100.259 23.8692L101.638 22.7696C101.852 22.5994 102.148 22.5994 102.362 22.7696L103.741 23.8692C104.212 24.2441 104.862 23.7515 104.665 23.1689L104.089 21.46C104 21.1955 104.092 20.9015 104.313 20.7421L105.741 19.7129C106.229 19.362 105.98 18.5649 105.389 18.5797L103.653 18.6233C103.384 18.63 103.145 18.4483 103.068 18.1796L102.571 16.4439Z" fill="white"/>
<defs>
<linearGradient id="paint0_linear" x1="120" y1="20" x2="-1.89792e-06" y2="20" gradientUnits="userSpaceOnUse">
<stop stop-color="#3D85FF"/>
<stop offset="1" stop-color="#3241F4"/>
</linearGradient>
<linearGradient id="paint1_linear" x1="93" y1="20" x2="85" y2="20" gradientUnits="userSpaceOnUse">
<stop stop-color="#3D85FF"/>
<stop offset="1" stop-color="#3241F4"/>
</linearGradient>
</defs>
</svg>
