<svg width="120" height="40" viewBox="0 0 120 40" fill="none" xmlns="http://www.w3.org/2000/svg">
<rect x="1" y="1" width="118" height="38" rx="19" stroke="url(#paint0_linear)" stroke-width="2"/>
<mask id="path-2-inside-1" fill="white">
<path fill-rule="evenodd" clip-rule="evenodd" d="M20 18V12L12 22H18L18 28L26 18L20 18Z"/>
</mask>
<path d="M20 18H19V19H20V18ZM20 12H21V9.14922L19.2191 11.3753L20 12ZM12 22L11.2191 21.3753L9.91938 23H12V22ZM18 22H19V21H18V22ZM18 28H17V30.8508L18.7809 28.6247L18 28ZM26 18L26.7809 18.6247L28.0806 17H26V18ZM21 18V12H19V18H21ZM19.2191 11.3753L11.2191 21.3753L12.7809 22.6247L20.7809 12.6247L19.2191 11.3753ZM12 23H18V21H12V23ZM17 22L17 28H19L19 22H17ZM18.7809 28.6247L26.7809 18.6247L25.2191 17.3753L17.2191 27.3753L18.7809 28.6247ZM26 17L20 17V19L26 19V17Z" fill="white" mask="url(#path-2-inside-1)"/>
<mask id="path-4-inside-2" fill="white">
<path fill-rule="evenodd" clip-rule="evenodd" d="M102 18V12L94 22H100L100 28L108 18L102 18Z"/>
</mask>
<path d="M102 18H101V19H102V18ZM102 12H103V9.14922L101.219 11.3753L102 12ZM94 22L93.2191 21.3753L91.9194 23H94V22ZM100 22H101V21H100V22ZM100 28H99V30.8508L100.781 28.6247L100 28ZM108 18L108.781 18.6247L110.081 17H108V18ZM103 18V12H101V18H103ZM101.219 11.3753L93.2191 21.3753L94.7809 22.6247L102.781 12.6247L101.219 11.3753ZM94 23H100V21H94V23ZM99 22L99 28H101L101 22H99ZM100.781 28.6247L108.781 18.6247L107.219 17.3753L99.2191 27.3753L100.781 28.6247ZM108 17L102 17V19L108 19V17Z" fill="white" mask="url(#path-4-inside-2)"/>
<mask id="path-6-inside-3" fill="white">
<path fill-rule="evenodd" clip-rule="evenodd" d="M33.3889 20C33.3889 19.1716 33.9858 18.5 34.7222 18.5C35.4586 18.5 36.0556 19.1716 36.0556 20C36.0556 21.3807 37.0505 22.5 38.2778 22.5C39.5051 22.5 40.5 21.3807 40.5 20C40.5 19.7239 40.301 19.5 40.0556 19.5C39.8101 19.5 39.6111 19.7239 39.6111 20C39.6111 20.8284 39.0142 21.5 38.2778 21.5C37.5414 21.5 36.9444 20.8284 36.9444 20C36.9444 18.6193 35.9495 17.5 34.7222 17.5C33.4949 17.5 32.5 18.6193 32.5 20C32.5 20.2761 32.699 20.5 32.9444 20.5C33.1899 20.5 33.3889 20.2761 33.3889 20Z"/>
</mask>
<path d="M36.0556 20L38.0556 20V20H36.0556ZM34.7222 16.5C32.6663 16.5 31.3889 18.295 31.3889 20H35.3889C35.3889 20.065 35.3654 20.1656 35.2742 20.2681C35.1799 20.3742 34.9882 20.5 34.7222 20.5V16.5ZM38.0556 20C38.0556 18.295 36.7781 16.5 34.7222 16.5V20.5C34.4563 20.5 34.2646 20.3742 34.1702 20.2681C34.0791 20.1656 34.0556 20.065 34.0556 20H38.0556ZM34.0556 20C34.0556 22.2573 35.731 24.5 38.2778 24.5V20.5C38.277 20.5 38.2777 20.5 38.2786 20.5002C38.2793 20.5003 38.2772 20.5 38.2721 20.4976C38.2618 20.4927 38.2351 20.4771 38.2012 20.439C38.1315 20.3606 38.0556 20.2111 38.0556 20L34.0556 20ZM38.2778 24.5C40.8246 24.5 42.5 22.2573 42.5 20H38.5C38.5 20.2111 38.424 20.3606 38.3543 20.439C38.3205 20.4771 38.2937 20.4927 38.2834 20.4976C38.2784 20.5 38.2763 20.5003 38.277 20.5002C38.2778 20.5 38.2785 20.5 38.2778 20.5V24.5ZM42.5 20C42.5 18.8473 41.6205 17.5 40.0556 17.5V21.5C38.9815 21.5 38.5 20.6005 38.5 20H42.5ZM40.0556 17.5C38.4906 17.5 37.6111 18.8473 37.6111 20H41.6111C41.6111 20.6005 41.1296 21.5 40.0556 21.5V17.5ZM37.6111 20C37.6111 19.935 37.6346 19.8344 37.7258 19.7319C37.8201 19.6258 38.0118 19.5 38.2778 19.5V23.5C40.3337 23.5 41.6111 21.705 41.6111 20H37.6111ZM38.2778 19.5C38.5437 19.5 38.7354 19.6258 38.8298 19.7319C38.9209 19.8344 38.9444 19.935 38.9444 20H34.9444C34.9444 21.705 36.2219 23.5 38.2778 23.5V19.5ZM34.7222 19.5C34.723 19.5 34.7223 19.5 34.7214 19.4998C34.7207 19.4997 34.7228 19.5 34.7279 19.5024C34.7382 19.5073 34.7649 19.5229 34.7988 19.561C34.8685 19.6394 34.9444 19.7889 34.9444 20H38.9444C38.9444 17.7427 37.269 15.5 34.7222 15.5V19.5ZM34.5 20C34.5 19.7889 34.576 19.6394 34.6457 19.561C34.6795 19.5229 34.7063 19.5073 34.7166 19.5024C34.7216 19.5 34.7237 19.4997 34.723 19.4998C34.7222 19.5 34.7215 19.5 34.7222 19.5V15.5C32.1754 15.5 30.5 17.7427 30.5 20H34.5ZM32.9444 18.5C34.0185 18.5 34.5 19.3995 34.5 20H30.5C30.5 21.1527 31.3795 22.5 32.9444 22.5V18.5ZM31.3889 20C31.3889 19.3995 31.8704 18.5 32.9444 18.5V22.5C34.5094 22.5 35.3889 21.1527 35.3889 20H31.3889Z" fill="url(#paint1_linear)" mask="url(#path-6-inside-3)"/>
<mask id="path-8-inside-4" fill="white">
<path fill-rule="evenodd" clip-rule="evenodd" d="M86.5 21C86.5 20.1716 85.8284 19.5 85 19.5C84.1716 19.5 83.5 20.1716 83.5 21C83.5 22.3807 82.3807 23.5 81 23.5C79.6193 23.5 78.5 22.3807 78.5 21C78.5 20.7239 78.7239 20.5 79 20.5C79.2761 20.5 79.5 20.7239 79.5 21C79.5 21.8284 80.1716 22.5 81 22.5C81.8284 22.5 82.5 21.8284 82.5 21C82.5 19.6193 83.6193 18.5 85 18.5C86.3807 18.5 87.5 19.6193 87.5 21C87.5 21.2761 87.2761 21.5 87 21.5C86.7239 21.5 86.5 21.2761 86.5 21Z"/>
</mask>
<path d="M85 21.5C84.7239 21.5 84.5 21.2761 84.5 21H88.5C88.5 19.067 86.933 17.5 85 17.5V21.5ZM85.5 21C85.5 21.2761 85.2761 21.5 85 21.5V17.5C83.067 17.5 81.5 19.067 81.5 21H85.5ZM81.5 21C81.5 21.2761 81.2761 21.5 81 21.5V25.5C83.4853 25.5 85.5 23.4853 85.5 21H81.5ZM81 21.5C80.7239 21.5 80.5 21.2761 80.5 21H76.5C76.5 23.4853 78.5147 25.5 81 25.5V21.5ZM80.5 21C80.5 21.8284 79.8284 22.5 79 22.5V18.5C77.6193 18.5 76.5 19.6193 76.5 21H80.5ZM79 22.5C78.1716 22.5 77.5 21.8284 77.5 21H81.5C81.5 19.6193 80.3807 18.5 79 18.5V22.5ZM77.5 21C77.5 22.933 79.067 24.5 81 24.5V20.5C81.2761 20.5 81.5 20.7239 81.5 21H77.5ZM81 24.5C82.933 24.5 84.5 22.933 84.5 21H80.5C80.5 20.7239 80.7239 20.5 81 20.5V24.5ZM85 16.5C82.5147 16.5 80.5 18.5147 80.5 21H84.5C84.5 20.7239 84.7239 20.5 85 20.5V16.5ZM89.5 21C89.5 18.5147 87.4853 16.5 85 16.5V20.5C85.2761 20.5 85.5 20.7239 85.5 21H89.5ZM87 23.5C88.3807 23.5 89.5 22.3807 89.5 21H85.5C85.5 20.1716 86.1716 19.5 87 19.5V23.5ZM84.5 21C84.5 22.3807 85.6193 23.5 87 23.5V19.5C87.8284 19.5 88.5 20.1716 88.5 21H84.5Z" fill="url(#paint2_linear)" mask="url(#path-8-inside-4)"/>
<path d="M55.784 16.416C55.304 15.96 54.644 15.72 53.804 15.72H50.708V24H52.28V20.856H53.804C54.644 20.856 55.304 20.628 55.784 20.172C56.264 19.716 56.516 19.092 56.516 18.324C56.516 17.52 56.264 16.884 55.784 16.416ZM54.62 19.176C54.404 19.38 54.104 19.476 53.732 19.476H52.28V17.088H53.732C54.116 17.088 54.404 17.196 54.62 17.412C54.836 17.628 54.944 17.928 54.944 18.324C54.944 18.696 54.836 18.984 54.62 19.176ZM61.2864 22.392L61.7904 24H63.4584L60.5064 15.72H59.2224L56.2824 24H57.9384L58.4424 22.392H61.2864ZM60.8664 21.084H58.8624L59.8584 17.904L60.8664 21.084ZM66.5828 20.592L68.9948 15.72H67.2668L65.7908 19.08L64.3148 15.72H62.5988L65.0108 20.604V24H66.5828V20.592Z" fill="white"/>
<defs>
<linearGradient id="paint0_linear" x1="120" y1="20" x2="-1.89792e-06" y2="20" gradientUnits="userSpaceOnUse">
<stop stop-color="#3D85FF"/>
<stop offset="1" stop-color="#3241F4"/>
</linearGradient>
<linearGradient id="paint1_linear" x1="40.5" y1="20" x2="32.5" y2="20" gradientUnits="userSpaceOnUse">
<stop stop-color="#3D85FF"/>
<stop offset="1" stop-color="#3241F4"/>
</linearGradient>
<linearGradient id="paint2_linear" x1="87.5" y1="21" x2="78.5" y2="21" gradientUnits="userSpaceOnUse">
<stop stop-color="#3D85FF"/>
<stop offset="1" stop-color="#3241F4"/>
</linearGradient>
</defs>
</svg>
