<svg width="120" height="40" viewBox="0 0 120 40" fill="none" xmlns="http://www.w3.org/2000/svg">
<circle cx="100" cy="20" r="19" stroke="url(#paint0_linear)" stroke-width="2"/>
<path d="M94.052 22.392L94.556 24H96.224L93.272 15.72H91.988L89.048 24H90.704L91.208 22.392H94.052ZM93.632 21.084H91.628L92.624 17.904L93.632 21.084ZM102.061 16.416C101.581 15.96 100.921 15.72 100.081 15.72H96.9853V24H98.5573V20.856H100.081C100.921 20.856 101.581 20.628 102.061 20.172C102.541 19.716 102.793 19.092 102.793 18.324C102.793 17.52 102.541 16.884 102.061 16.416ZM100.897 19.176C100.681 19.38 100.381 19.476 100.009 19.476H98.5573V17.088H100.009C100.393 17.088 100.681 17.196 100.897 17.412C101.113 17.628 101.221 17.928 101.221 18.324C101.221 18.696 101.113 18.984 100.897 19.176ZM109.986 15.72H108.414V20.904L105.366 15.72H103.794V24H105.366V18.828L108.414 24H109.986V15.72Z" fill="white"/>
<circle cx="20" cy="20" r="19" stroke="url(#paint1_linear)" stroke-width="2"/>
<path d="M12.372 20.316L14.424 24H16.248L13.38 19.044L16.032 15.72H14.148L11.28 19.584V15.72H9.708V24H11.28V21.684L12.372 20.316ZM17.4522 23.412C17.9442 23.856 18.6402 24.072 19.5282 24.072C20.4282 24.072 21.1482 23.856 21.6762 23.412C22.2042 22.98 22.4802 22.344 22.4802 21.504C22.4802 20.208 21.7602 19.44 20.3442 19.176L19.4682 19.02C19.0722 18.948 18.7842 18.828 18.6042 18.66C18.4122 18.492 18.3282 18.264 18.3282 17.976C18.3282 17.652 18.4242 17.4 18.6402 17.208C18.8442 17.016 19.1562 16.92 19.5642 16.92C19.9602 16.92 20.2602 17.016 20.4762 17.196C20.6802 17.388 20.8002 17.676 20.8242 18.072H22.3362C22.2642 17.292 22.0002 16.68 21.5202 16.248C21.0402 15.816 20.4042 15.6 19.5882 15.6C18.7482 15.6 18.0642 15.828 17.5602 16.272C17.0562 16.728 16.8042 17.328 16.8042 18.096C16.8042 19.392 17.5482 20.16 19.0482 20.4L19.8282 20.532C20.2122 20.604 20.4882 20.724 20.6682 20.892C20.8362 21.06 20.9322 21.312 20.9322 21.636C20.9322 22.368 20.4882 22.728 19.6002 22.728C19.1322 22.728 18.7842 22.644 18.5442 22.452C18.3042 22.26 18.1602 21.936 18.1122 21.48H16.6242C16.6722 22.32 16.9482 22.968 17.4522 23.412ZM30.9744 15.72H29.4024L27.3024 20.292L25.1784 15.72H23.6064V24H25.1784V19.056L26.7744 22.404H27.8304L29.4024 19.092V24H30.9744V15.72Z" fill="white"/>
<path fill-rule="evenodd" clip-rule="evenodd" d="M48.7773 18.0865C48.4451 17.865 48 18.1032 48 18.5025V22.7655C48 23.1648 48.4451 23.403 48.7773 23.1815L51.9746 21.05C52.2714 20.8521 52.2714 20.4159 51.9746 20.218L48.7773 18.0865ZM47 18.5025C47 17.3045 48.3352 16.5899 49.332 17.2544L52.5293 19.3859C53.4199 19.9797 53.4199 21.2883 52.5293 21.8821L49.3321 24.0136C48.3352 24.6781 47 23.9635 47 22.7655V18.5025Z" fill="white"/>
<path fill-rule="evenodd" clip-rule="evenodd" d="M72.2227 18.0865C72.5549 17.865 73 18.1032 73 18.5025V22.7655C73 23.1648 72.5549 23.403 72.2227 23.1815L69.0254 21.05C68.7286 20.8521 68.7286 20.4159 69.0254 20.218L72.2227 18.0865ZM74 18.5025C74 17.3045 72.6648 16.5899 71.668 17.2544L68.4707 19.3859C67.5801 19.9797 67.5801 21.2883 68.4707 21.8821L71.6679 24.0136C72.6648 24.6781 74 23.9635 74 22.7655V18.5025Z" fill="white"/>
<path fill-rule="evenodd" clip-rule="evenodd" d="M56.5 20.634C56.5 20.3579 56.7239 20.134 57 20.134H64C64.2761 20.134 64.5 20.3579 64.5 20.634C64.5 20.9102 64.2761 21.134 64 21.134H57C56.7239 21.134 56.5 20.9102 56.5 20.634Z" fill="white"/>
<rect x="1" y="1" width="118" height="38" rx="19" stroke="url(#paint2_linear)" stroke-width="2"/>
<defs>
<linearGradient id="paint0_linear" x1="120" y1="20" x2="80" y2="20" gradientUnits="userSpaceOnUse">
<stop stop-color="#3D85FF"/>
<stop offset="1" stop-color="#3241F4"/>
</linearGradient>
<linearGradient id="paint1_linear" x1="40" y1="20" x2="-6.3264e-07" y2="20" gradientUnits="userSpaceOnUse">
<stop stop-color="#3D85FF"/>
<stop offset="1" stop-color="#3241F4"/>
</linearGradient>
<linearGradient id="paint2_linear" x1="120" y1="20" x2="-1.89792e-06" y2="20" gradientUnits="userSpaceOnUse">
<stop stop-color="#3D85FF"/>
<stop offset="1" stop-color="#3241F4"/>
</linearGradient>
</defs>
</svg>
