<svg width="120" height="40" viewBox="0 0 120 40" fill="none" xmlns="http://www.w3.org/2000/svg">
<circle cx="100" cy="20" r="19" stroke="url(#paint0_linear)" stroke-width="2"/>
<path d="M94.932 22.848C95.256 22.464 95.424 21.96 95.424 21.312C95.424 20.712 95.268 20.244 94.968 19.896C94.668 19.56 94.224 19.332 93.624 19.212L92.94 19.08C92.592 19.02 92.34 18.912 92.196 18.768C92.04 18.624 91.968 18.432 91.968 18.168C91.968 17.88 92.04 17.664 92.208 17.508C92.364 17.352 92.592 17.268 92.892 17.268C93.204 17.268 93.444 17.352 93.612 17.508C93.768 17.664 93.864 17.916 93.9 18.252H95.316C95.268 17.664 95.1 17.184 94.8 16.812C94.488 16.44 94.08 16.2 93.564 16.08V15.12H92.328V16.068C91.764 16.188 91.32 16.428 91.008 16.812C90.684 17.196 90.528 17.688 90.528 18.276C90.528 18.876 90.684 19.356 91.008 19.692C91.332 20.028 91.836 20.256 92.508 20.376L93.096 20.484C93.396 20.544 93.612 20.652 93.756 20.796C93.888 20.94 93.96 21.156 93.96 21.432C93.96 22.056 93.612 22.368 92.928 22.368C92.544 22.368 92.268 22.296 92.076 22.128C91.884 21.96 91.776 21.684 91.728 21.276H90.348C90.372 21.948 90.564 22.476 90.912 22.884C91.248 23.292 91.728 23.532 92.328 23.616V24.72H93.564V23.592C94.14 23.484 94.596 23.232 94.932 22.848ZM100.955 22.848C101.279 22.464 101.447 21.96 101.447 21.312C101.447 20.712 101.291 20.244 100.991 19.896C100.691 19.56 100.247 19.332 99.6474 19.212L98.9634 19.08C98.6154 19.02 98.3634 18.912 98.2194 18.768C98.0634 18.624 97.9914 18.432 97.9914 18.168C97.9914 17.88 98.0634 17.664 98.2314 17.508C98.3874 17.352 98.6154 17.268 98.9154 17.268C99.2274 17.268 99.4674 17.352 99.6354 17.508C99.7914 17.664 99.8874 17.916 99.9234 18.252H101.339C101.291 17.664 101.123 17.184 100.823 16.812C100.511 16.44 100.103 16.2 99.5874 16.08V15.12H98.3514V16.068C97.7874 16.188 97.3434 16.428 97.0314 16.812C96.7074 17.196 96.5514 17.688 96.5514 18.276C96.5514 18.876 96.7074 19.356 97.0314 19.692C97.3554 20.028 97.8594 20.256 98.5314 20.376L99.1194 20.484C99.4194 20.544 99.6354 20.652 99.7794 20.796C99.9114 20.94 99.9834 21.156 99.9834 21.432C99.9834 22.056 99.6354 22.368 98.9514 22.368C98.5674 22.368 98.2914 22.296 98.0994 22.128C97.9074 21.96 97.7994 21.684 97.7514 21.276H96.3714C96.3954 21.948 96.5874 22.476 96.9354 22.884C97.2714 23.292 97.7514 23.532 98.3514 23.616V24.72H99.5874V23.592C100.163 23.484 100.619 23.232 100.955 22.848ZM106.979 22.848C107.303 22.464 107.471 21.96 107.471 21.312C107.471 20.712 107.315 20.244 107.015 19.896C106.715 19.56 106.271 19.332 105.671 19.212L104.987 19.08C104.639 19.02 104.387 18.912 104.243 18.768C104.087 18.624 104.015 18.432 104.015 18.168C104.015 17.88 104.087 17.664 104.255 17.508C104.411 17.352 104.639 17.268 104.939 17.268C105.251 17.268 105.491 17.352 105.659 17.508C105.815 17.664 105.911 17.916 105.947 18.252H107.363C107.315 17.664 107.147 17.184 106.847 16.812C106.535 16.44 106.127 16.2 105.611 16.08V15.12H104.375V16.068C103.811 16.188 103.367 16.428 103.055 16.812C102.731 17.196 102.575 17.688 102.575 18.276C102.575 18.876 102.731 19.356 103.055 19.692C103.379 20.028 103.883 20.256 104.555 20.376L105.143 20.484C105.443 20.544 105.659 20.652 105.803 20.796C105.935 20.94 106.007 21.156 106.007 21.432C106.007 22.056 105.659 22.368 104.975 22.368C104.591 22.368 104.315 22.296 104.123 22.128C103.931 21.96 103.823 21.684 103.775 21.276H102.395C102.419 21.948 102.611 22.476 102.959 22.884C103.295 23.292 103.775 23.532 104.375 23.616V24.72H105.611V23.592C106.187 23.484 106.643 23.232 106.979 22.848Z" fill="white"/>
<path fill-rule="evenodd" clip-rule="evenodd" d="M20.3524 20.7689V22.6488C20.3524 23.0565 20.8143 23.2928 21.145 23.0543L26.7919 18.9803C27.0685 18.7808 27.0685 18.3689 26.7919 18.1693L21.145 14.0954C20.8143 13.8568 20.3524 14.0931 20.3524 14.5009V17.328C19.2506 17.2766 18.1194 17.4643 17.0495 17.9214C13.5436 19.4192 12.0239 23.2431 13.6552 26.4622C13.9485 27.0409 14.3236 27.5607 14.7621 28.0153C14.3223 25.2741 15.8616 22.4805 18.7374 21.2519C19.2644 21.0267 19.8064 20.8669 20.3524 20.7689Z" fill="white"/>
<mask id="path-4-inside-1" fill="white">
<path fill-rule="evenodd" clip-rule="evenodd" d="M58.7773 18.0865C58.4451 17.865 58 18.1032 58 18.5025V22.7655C58 23.1648 58.4451 23.403 58.7773 23.1815L61.9746 21.05C62.2714 20.8521 62.2714 20.4159 61.9746 20.218L58.7773 18.0865ZM57 18.5025C57 17.3045 58.3352 16.5899 59.332 17.2544L62.5293 19.3859C63.4199 19.9797 63.4199 21.2883 62.5293 21.8821L59.3321 24.0136C58.3352 24.6781 57 23.9635 57 22.7655V18.5025Z"/>
</mask>
<path d="M58.7773 18.0865L57.6679 19.7506H57.6679L58.7773 18.0865ZM58.7773 23.1815L59.8867 24.8456L59.8868 24.8456L58.7773 23.1815ZM61.9746 21.05L63.084 22.7141L63.084 22.7141L61.9746 21.05ZM61.9746 20.218L60.8652 21.8821L61.9746 20.218ZM59.332 17.2544L58.2226 18.9185L59.332 17.2544ZM62.5293 19.3859L63.6387 17.7218L63.6387 17.7218L62.5293 19.3859ZM62.5293 21.8821L61.4199 20.218L61.4199 20.218L62.5293 21.8821ZM59.3321 24.0136L60.4415 25.6777H60.4415L59.3321 24.0136ZM60 18.5025C60 19.7006 58.6648 20.4152 57.6679 19.7506L59.8867 16.4224C58.2254 15.3148 56 16.5058 56 18.5025H60ZM60 22.7655V18.5025H56V22.7655H60ZM57.668 21.5174C58.6648 20.8529 60 21.5674 60 22.7655H56C56 24.7622 58.2254 25.9532 59.8867 24.8456L57.668 21.5174ZM60.8652 19.3859L57.6679 21.5174L59.8868 24.8456L63.084 22.7141L60.8652 19.3859ZM60.8652 21.8821C59.9746 21.2883 59.9746 19.9797 60.8652 19.3859L63.084 22.7141C64.5683 21.7246 64.5683 19.5434 63.084 18.5539L60.8652 21.8821ZM57.6679 19.7506L60.8652 21.8821L63.084 18.5539L59.8867 16.4224L57.6679 19.7506ZM60.4415 15.5903C58.1155 14.0397 55 15.7071 55 18.5025H59C59 18.9019 58.5549 19.1401 58.2226 18.9185L60.4415 15.5903ZM63.6387 17.7218L60.4414 15.5903L58.2226 18.9185L61.4199 21.05L63.6387 17.7218ZM63.6387 23.5462C65.7167 22.1608 65.7167 19.1072 63.6387 17.7218L61.4199 21.05C61.123 20.8521 61.123 20.4159 61.4199 20.218L63.6387 23.5462ZM60.4415 25.6777L63.6387 23.5462L61.4199 20.218L58.2226 22.3495L60.4415 25.6777ZM55 22.7655C55 25.5609 58.1155 27.2283 60.4415 25.6777L58.2227 22.3495C58.5549 22.1279 59 22.3661 59 22.7655H55ZM55 18.5025V22.7655H59V18.5025H55Z" fill="url(#paint1_linear)" mask="url(#path-4-inside-1)"/>
<path fill-rule="evenodd" clip-rule="evenodd" d="M68.7773 18.0865C68.4451 17.865 68 18.1032 68 18.5025V22.7655C68 23.1648 68.4451 23.403 68.7773 23.1815L71.9746 21.05C72.2714 20.8521 72.2714 20.4159 71.9746 20.218L68.7773 18.0865ZM67 18.5025C67 17.3045 68.3352 16.5899 69.332 17.2544L72.5293 19.3859C73.4199 19.9797 73.4199 21.2883 72.5293 21.8821L69.3321 24.0136C68.3352 24.6781 67 23.9635 67 22.7655V18.5025Z" fill="white"/>
<rect x="1" y="1" width="118" height="38" rx="19" stroke="url(#paint2_linear)" stroke-width="2"/>
<line x1="34.5" y1="20.5" x2="49.5" y2="20.5" stroke="white" stroke-linecap="round"/>
<defs>
<linearGradient id="paint0_linear" x1="120" y1="20" x2="80" y2="20" gradientUnits="userSpaceOnUse">
<stop stop-color="#3D85FF"/>
<stop offset="1" stop-color="#3241F4"/>
</linearGradient>
<linearGradient id="paint1_linear" x1="63.1972" y1="20.634" x2="57" y2="20.634" gradientUnits="userSpaceOnUse">
<stop stop-color="#3D85FF"/>
<stop offset="1" stop-color="#3241F4"/>
</linearGradient>
<linearGradient id="paint2_linear" x1="120" y1="20" x2="-1.89792e-06" y2="20" gradientUnits="userSpaceOnUse">
<stop stop-color="#3D85FF"/>
<stop offset="1" stop-color="#3241F4"/>
</linearGradient>
</defs>
</svg>
