<svg width="120" height="136" viewBox="0 0 120 136" fill="none" xmlns="http://www.w3.org/2000/svg">
<path d="M75.7546 0H44.2454C43.3796 0 42.9229 1.02544 43.5021 1.66897L59.2567 19.1741C59.6539 19.6155 60.3461 19.6155 60.7433 19.1741L76.4979 1.66896C77.0771 1.02544 76.6204 0 75.7546 0Z" fill="url(#paint0_linear)"/>
<path d="M26.2 121.104C29.668 125.184 34.972 127.122 42.112 127.122C49.252 127.122 54.454 125.082 57.922 121.002C61.39 116.922 63.124 110.904 63.124 102.846V77.958C63.124 70.206 61.39 64.392 57.922 60.414C54.454 56.538 49.252 54.498 42.112 54.498C35.176 54.498 29.974 56.538 26.404 60.516C22.834 64.494 21.1 70.308 21.1 77.958L21.1 102.846C21.1 111.006 22.732 117.024 26.2 121.104ZM48.13 112.434C47.11 114.474 45.07 115.494 42.112 115.494C39.154 115.494 37.114 114.474 36.094 112.434C35.074 110.394 34.564 106.824 34.564 101.724V79.896C34.564 74.898 35.074 71.328 36.094 69.288C37.114 67.248 39.052 66.228 42.112 66.228C45.07 66.228 47.11 67.248 48.13 69.288C49.15 71.328 49.762 74.898 49.762 79.896V101.724C49.762 106.824 49.15 110.394 48.13 112.434ZM83.6993 70.41V126H97.0613V55.62L83.6993 55.62L71.8673 64.494V78.978L83.6993 70.41Z" fill="white"/>
<rect y="88" width="120" height="8" rx="1" fill="url(#paint1_linear)"/>
<defs>
<linearGradient id="paint0_linear" x1="78" y1="10" x2="42" y2="10" gradientUnits="userSpaceOnUse">
<stop stop-color="#3D85FF"/>
<stop offset="1" stop-color="#3241F4"/>
</linearGradient>
<linearGradient id="paint1_linear" x1="120" y1="92" x2="-1.89789e-06" y2="91.9999" gradientUnits="userSpaceOnUse">
<stop stop-color="#3D85FF"/>
<stop offset="1" stop-color="#3241F4"/>
</linearGradient>
</defs>
</svg>
