<svg width="120" height="136" viewBox="0 0 120 136" fill="none" xmlns="http://www.w3.org/2000/svg">
<path d="M76.7546 0H45.2454C44.3796 0 43.9229 1.02544 44.5021 1.66897L60.2567 19.1741C60.6539 19.6155 61.3461 19.6155 61.7433 19.1741L77.4979 1.66896C78.0771 1.02544 77.6204 0 76.7546 0Z" fill="url(#paint0_linear)"/>
<path d="M18.2 121.104C21.668 125.184 26.972 127.122 34.112 127.122C41.252 127.122 46.454 125.082 49.922 121.002C53.39 116.922 55.124 110.904 55.124 102.846V77.958C55.124 70.206 53.39 64.392 49.922 60.414C46.454 56.538 41.252 54.498 34.112 54.498C27.176 54.498 21.974 56.538 18.404 60.516C14.834 64.494 13.1 70.308 13.1 77.958V102.846C13.1 111.006 14.732 117.024 18.2 121.104ZM40.13 112.434C39.11 114.474 37.07 115.494 34.112 115.494C31.154 115.494 29.114 114.474 28.094 112.434C27.074 110.394 26.564 106.824 26.564 101.724V79.896C26.564 74.898 27.074 71.328 28.094 69.288C29.114 67.248 31.052 66.228 34.112 66.228C37.07 66.228 39.11 67.248 40.13 69.288C41.15 71.328 41.762 74.898 41.762 79.896V101.724C41.762 106.824 41.15 110.394 40.13 112.434ZM70.1913 122.43C73.8633 125.592 78.9633 127.122 85.5933 127.122C89.5713 127.122 93.1413 126.306 96.4053 124.674C99.5673 123.042 102.015 120.594 103.851 117.534C105.585 114.474 106.503 110.904 106.503 106.722V104.784C106.503 100.908 105.687 97.542 104.055 94.686C102.423 91.932 100.179 89.892 97.1193 88.566C99.7713 87.138 101.811 85.302 103.239 82.854C104.667 80.406 105.381 77.652 105.381 74.592V73.062C105.381 67.452 103.545 62.964 100.077 59.598C96.5073 56.232 91.6113 54.498 85.4913 54.498C79.1673 54.498 74.1693 56.232 70.5993 59.496C67.0293 62.76 65.2953 67.35 65.2953 73.266V75H77.5353V73.266C77.5353 71.022 78.1473 69.186 79.4733 67.86C80.6973 66.534 82.5333 65.82 84.9813 65.82C87.2253 65.82 89.0613 66.636 90.3873 68.064C91.7133 69.492 92.4273 71.532 92.4273 74.082V75.612C92.4273 78.264 91.7133 80.406 90.2853 81.834C88.8573 83.364 86.8173 84.078 84.2673 84.078H80.7993V95.4H84.3693C87.3273 95.4 89.5713 96.216 91.2033 97.848C92.7333 99.48 93.5493 101.826 93.5493 104.886V106.722C93.5493 109.578 92.7333 111.72 91.3053 113.352C89.8773 114.984 87.8373 115.8 85.3893 115.8C82.7373 115.8 80.6973 115.188 79.2693 113.964C77.8413 112.74 77.2293 110.802 77.2293 108.354V106.824H64.7853V108.966C64.7853 114.78 66.5193 119.268 70.1913 122.43Z" fill="white"/>
<rect y="88" width="120" height="8" rx="1" fill="url(#paint1_linear)"/>
<defs>
<linearGradient id="paint0_linear" x1="79" y1="10" x2="43" y2="10" gradientUnits="userSpaceOnUse">
<stop stop-color="#3D85FF"/>
<stop offset="1" stop-color="#3241F4"/>
</linearGradient>
<linearGradient id="paint1_linear" x1="120" y1="92" x2="-1.89789e-06" y2="91.9999" gradientUnits="userSpaceOnUse">
<stop stop-color="#3D85FF"/>
<stop offset="1" stop-color="#3241F4"/>
</linearGradient>
</defs>
</svg>
