<svg width="120" height="136" viewBox="0 0 120 136" fill="none" xmlns="http://www.w3.org/2000/svg">
<path d="M76.7546 0H45.2454C44.3796 0 43.9229 1.02544 44.5021 1.66897L60.2567 19.1741C60.6539 19.6155 61.3461 19.6155 61.7433 19.1741L77.4979 1.66896C78.0771 1.02544 77.6204 0 76.7546 0Z" fill="url(#paint0_linear)"/>
<path d="M17.2 121.104C20.668 125.184 25.972 127.122 33.112 127.122C40.252 127.122 45.454 125.082 48.922 121.002C52.39 116.922 54.124 110.904 54.124 102.846V77.958C54.124 70.206 52.39 64.392 48.922 60.414C45.454 56.538 40.252 54.498 33.112 54.498C26.176 54.498 20.974 56.538 17.404 60.516C13.834 64.494 12.1 70.308 12.1 77.958V102.846C12.1 111.006 13.732 117.024 17.2 121.104ZM39.13 112.434C38.11 114.474 36.07 115.494 33.112 115.494C30.154 115.494 28.114 114.474 27.094 112.434C26.074 110.394 25.564 106.824 25.564 101.724V79.896C25.564 74.898 26.074 71.328 27.094 69.288C28.114 67.248 30.052 66.228 33.112 66.228C36.07 66.228 38.11 67.248 39.13 69.288C40.15 71.328 40.762 74.898 40.762 79.896V101.724C40.762 106.824 40.15 110.394 39.13 112.434ZM108.767 114.78V103.05H103.055V86.526H89.6933V103.05H76.1273L96.2213 55.62H82.8593L62.7653 103.05V114.78H89.6933V126H103.055V114.78H108.767Z" fill="white"/>
<rect y="88" width="120" height="8" rx="1" fill="url(#paint1_linear)"/>
<defs>
<linearGradient id="paint0_linear" x1="79" y1="10" x2="43" y2="10" gradientUnits="userSpaceOnUse">
<stop stop-color="#3D85FF"/>
<stop offset="1" stop-color="#3241F4"/>
</linearGradient>
<linearGradient id="paint1_linear" x1="120" y1="92" x2="-1.89789e-06" y2="91.9999" gradientUnits="userSpaceOnUse">
<stop stop-color="#3D85FF"/>
<stop offset="1" stop-color="#3241F4"/>
</linearGradient>
</defs>
</svg>
