<svg width="120" height="136" viewBox="0 0 120 136" fill="none" xmlns="http://www.w3.org/2000/svg">
<path d="M76.7546 0H45.2454C44.3796 0 43.9229 1.02544 44.5021 1.66897L60.2567 19.1741C60.6539 19.6155 61.3461 19.6155 61.7433 19.1741L77.4979 1.66896C78.0771 1.02544 77.6204 0 76.7546 0Z" fill="url(#paint0_linear)"/>
<path d="M19.2 121.104C22.668 125.184 27.972 127.122 35.112 127.122C42.252 127.122 47.454 125.082 50.922 121.002C54.39 116.922 56.124 110.904 56.124 102.846V77.958C56.124 70.206 54.39 64.392 50.922 60.414C47.454 56.538 42.252 54.498 35.112 54.498C28.176 54.498 22.974 56.538 19.404 60.516C15.834 64.494 14.1 70.308 14.1 77.958V102.846C14.1 111.006 15.732 117.024 19.2 121.104ZM41.13 112.434C40.11 114.474 38.07 115.494 35.112 115.494C32.154 115.494 30.114 114.474 29.094 112.434C28.074 110.394 27.564 106.824 27.564 101.724V79.896C27.564 74.898 28.074 71.328 29.094 69.288C30.114 67.248 32.052 66.228 35.112 66.228C38.07 66.228 40.11 67.248 41.13 69.288C42.15 71.328 42.762 74.898 42.762 79.896V101.724C42.762 106.824 42.15 110.394 41.13 112.434ZM66.0913 115.392V126H106.891V114.27H82.9213L100.465 91.524C102.505 88.872 104.137 86.22 105.259 83.568C106.279 81.018 106.891 78.162 106.891 75.102V73.368C106.891 69.9 105.973 66.738 104.341 63.882C102.709 61.026 100.261 58.782 97.2013 57.048C94.1413 55.416 90.5713 54.498 86.4913 54.498C82.2073 54.498 78.5353 55.314 75.4753 56.946C72.3133 58.578 69.8653 60.822 68.2333 63.678C66.6013 66.534 65.7853 69.798 65.7853 73.47V75.918H78.7393V74.286C78.7393 71.634 79.3513 69.594 80.6773 68.064C81.9013 66.636 83.7373 65.82 85.9813 65.82C88.2253 65.82 89.9593 66.534 91.2853 67.962C92.6113 69.39 93.3253 71.328 93.3253 73.776V75.204C93.3253 78.366 91.9993 81.63 89.4493 85.098L66.0913 115.392Z" fill="white"/>
<rect y="88" width="120" height="8" rx="1" fill="url(#paint1_linear)"/>
<defs>
<linearGradient id="paint0_linear" x1="79" y1="10" x2="43" y2="10" gradientUnits="userSpaceOnUse">
<stop stop-color="#3D85FF"/>
<stop offset="1" stop-color="#3241F4"/>
</linearGradient>
<linearGradient id="paint1_linear" x1="120" y1="92" x2="-1.89789e-06" y2="91.9999" gradientUnits="userSpaceOnUse">
<stop stop-color="#3D85FF"/>
<stop offset="1" stop-color="#3241F4"/>
</linearGradient>
</defs>
</svg>
