<svg width="1172" height="678" viewBox="0 0 1172 678" fill="none" xmlns="http://www.w3.org/2000/svg">
<g opacity="0.3">
<path d="M0.0670784 677.75C-0.0710085 677.51 0.0109384 677.204 0.250112 677.066L2.84082 675.568C3.07999 675.429 3.38582 675.512 3.52391 675.751C3.662 675.991 3.58005 676.297 3.34088 676.435L0.750169 677.933C0.510995 678.071 0.205165 677.989 0.0670784 677.75Z" fill="white"/>
<path d="M7.8392 673.256C7.70111 673.017 7.78306 672.711 8.02223 672.572L13.2036 669.577C13.4428 669.438 13.7487 669.52 13.8867 669.76C14.0248 669.999 13.9429 670.306 13.7037 670.444L8.52229 673.439C8.28312 673.578 7.97729 673.496 7.8392 673.256Z" fill="white"/>
<path d="M18.202 667.265C18.0639 667.026 18.1459 666.719 18.3851 666.581L23.5665 663.586C23.8057 663.447 24.1115 663.529 24.2496 663.769C24.3877 664.008 24.3057 664.315 24.0665 664.453L18.8851 667.448C18.6459 667.587 18.3401 667.505 18.202 667.265Z" fill="white"/>
<path d="M28.5649 661.274C28.4268 661.034 28.5087 660.728 28.7479 660.59L33.9293 657.594C34.1685 657.456 34.4743 657.538 34.6124 657.778C34.7505 658.017 34.6685 658.323 34.4294 658.462L29.2479 661.457C29.0088 661.596 28.7029 661.513 28.5649 661.274Z" fill="white"/>
<path d="M38.9277 655.283C38.7896 655.043 38.8715 654.737 39.1107 654.599L44.2921 651.603C44.5313 651.465 44.8371 651.547 44.9752 651.786C45.1133 652.026 45.0314 652.332 44.7922 652.471L39.6108 655.466C39.3716 655.604 39.0658 655.522 38.9277 655.283Z" fill="white"/>
<path d="M49.2905 649.292C49.1524 649.052 49.2344 648.746 49.4735 648.608L54.655 645.612C54.8941 645.474 55.2 645.556 55.338 645.795C55.4761 646.035 55.3942 646.341 55.155 646.479L49.9736 649.475C49.7344 649.613 49.4286 649.531 49.2905 649.292Z" fill="white"/>
<path d="M59.6533 643.301C59.5153 643.061 59.5972 642.755 59.8364 642.617L65.0178 639.621C65.257 639.483 65.5628 639.565 65.7009 639.804C65.839 640.044 65.757 640.35 65.5179 640.488L60.3364 643.484C60.0973 643.622 59.7914 643.54 59.6533 643.301Z" fill="white"/>
<path d="M70.0162 637.309C69.8781 637.07 69.96 636.764 70.1992 636.625L75.3806 633.63C75.6198 633.492 75.9256 633.574 76.0637 633.813C76.2018 634.053 76.1199 634.359 75.8807 634.497L70.6993 637.493C70.4601 637.631 70.1543 637.549 70.0162 637.309Z" fill="white"/>
<path d="M80.379 631.318C80.2409 631.079 80.3229 630.773 80.562 630.634L85.7434 627.639C85.9826 627.5 86.2884 627.582 86.4265 627.822C86.5646 628.061 86.4827 628.368 86.2435 628.506L81.0621 631.502C80.8229 631.64 80.5171 631.558 80.379 631.318Z" fill="white"/>
<path d="M90.7418 625.327C90.6037 625.088 90.6857 624.781 90.9249 624.643L96.1063 621.648C96.3454 621.509 96.6513 621.591 96.7894 621.831C96.9275 622.07 96.8455 622.377 96.6063 622.515L91.4249 625.51C91.1858 625.649 90.8799 625.567 90.7418 625.327Z" fill="white"/>
<path d="M101.105 619.336C100.967 619.096 101.049 618.79 101.288 618.652L106.469 615.656C106.708 615.518 107.014 615.6 107.152 615.84C107.29 616.079 107.208 616.385 106.969 616.524L101.788 619.519C101.549 619.658 101.243 619.576 101.105 619.336Z" fill="white"/>
<path d="M111.467 613.345C111.329 613.105 111.411 612.799 111.651 612.661L116.832 609.665C117.071 609.527 117.377 609.609 117.515 609.849C117.653 610.088 117.571 610.394 117.332 610.533L112.151 613.528C111.911 613.666 111.606 613.584 111.467 613.345Z" fill="white"/>
<path d="M121.83 607.354C121.692 607.114 121.774 606.808 122.013 606.67L127.195 603.674C127.434 603.536 127.74 603.618 127.878 603.857C128.016 604.097 127.934 604.403 127.695 604.541L122.513 607.537C122.274 607.675 121.968 607.593 121.83 607.354Z" fill="white"/>
<path d="M132.193 601.363C132.055 601.123 132.137 600.817 132.376 600.679L137.558 597.683C137.797 597.545 138.103 597.627 138.241 597.866C138.379 598.106 138.297 598.412 138.058 598.55L132.876 601.546C132.637 601.684 132.331 601.602 132.193 601.363Z" fill="white"/>
<path d="M142.556 595.371C142.418 595.132 142.5 594.826 142.739 594.687L147.92 591.692C148.16 591.554 148.465 591.636 148.604 591.875C148.742 592.115 148.66 592.421 148.42 592.559L143.239 595.555C143 595.693 142.694 595.611 142.556 595.371Z" fill="white"/>
<path d="M152.919 589.38C152.781 589.141 152.863 588.835 153.102 588.696L158.283 585.701C158.522 585.562 158.828 585.645 158.966 585.884C159.104 586.124 159.022 586.43 158.783 586.568L153.602 589.564C153.363 589.702 153.057 589.62 152.919 589.38Z" fill="white"/>
<path d="M163.282 583.389C163.144 583.15 163.225 582.843 163.465 582.705L168.646 579.71C168.885 579.571 169.191 579.653 169.329 579.893C169.467 580.132 169.385 580.439 169.146 580.577L163.965 583.572C163.726 583.711 163.42 583.629 163.282 583.389Z" fill="white"/>
<path d="M173.644 577.398C173.506 577.159 173.588 576.852 173.827 576.714L179.009 573.718C179.248 573.58 179.554 573.662 179.692 573.902C179.83 574.141 179.748 574.448 179.509 574.586L174.328 577.581C174.088 577.72 173.783 577.638 173.644 577.398Z" fill="white"/>
<path d="M184.007 571.407C183.869 571.167 183.951 570.861 184.19 570.723L189.372 567.727C189.611 567.589 189.917 567.671 190.055 567.911C190.193 568.15 190.111 568.456 189.872 568.595L184.69 571.59C184.451 571.729 184.145 571.646 184.007 571.407Z" fill="white"/>
<path d="M194.37 565.416C194.232 565.176 194.314 564.87 194.553 564.732L199.735 561.736C199.974 561.598 200.28 561.68 200.418 561.919C200.556 562.159 200.474 562.465 200.235 562.603L195.053 565.599C194.814 565.737 194.508 565.655 194.37 565.416Z" fill="white"/>
<path d="M204.733 559.425C204.595 559.185 204.677 558.879 204.916 558.741L210.097 555.745C210.337 555.607 210.642 555.689 210.78 555.928C210.919 556.168 210.837 556.474 210.597 556.612L205.416 559.608C205.177 559.746 204.871 559.664 204.733 559.425Z" fill="white"/>
<path d="M215.096 553.434C214.958 553.194 215.04 552.888 215.279 552.75L220.46 549.754C220.699 549.616 221.005 549.698 221.143 549.937C221.281 550.177 221.199 550.483 220.96 550.621L215.779 553.617C215.54 553.755 215.234 553.673 215.096 553.434Z" fill="white"/>
<path d="M225.459 547.442C225.321 547.203 225.402 546.897 225.642 546.758L230.823 543.763C231.062 543.625 231.368 543.707 231.506 543.946C231.644 544.186 231.562 544.492 231.323 544.63L226.142 547.626C225.903 547.764 225.597 547.682 225.459 547.442Z" fill="white"/>
<path d="M354.04 473.683V472.526L355.177 471.869C355.416 471.731 355.722 471.813 355.86 472.052C355.998 472.292 355.916 472.598 355.677 472.736L354.04 473.683Z" fill="white"/>
<path d="M360.175 469.558C360.037 469.318 360.119 469.012 360.358 468.874L365.54 465.878C365.779 465.74 366.085 465.822 366.223 466.061C366.361 466.301 366.279 466.607 366.04 466.745L360.858 469.741C360.619 469.879 360.313 469.797 360.175 469.558Z" fill="white"/>
<path d="M370.538 463.566C370.4 463.327 370.482 463.021 370.721 462.882L375.903 459.887C376.142 459.749 376.448 459.831 376.586 460.07C376.724 460.31 376.642 460.616 376.403 460.754L371.221 463.75C370.982 463.888 370.676 463.806 370.538 463.566Z" fill="white"/>
<path d="M380.901 457.575C380.763 457.336 380.845 457.03 381.084 456.891L386.265 453.896C386.505 453.757 386.81 453.84 386.949 454.079C387.087 454.319 387.005 454.625 386.766 454.763L381.584 457.759C381.345 457.897 381.039 457.815 380.901 457.575Z" fill="white"/>
<path d="M391.264 451.584C391.126 451.345 391.208 451.038 391.447 450.9L396.628 447.905C396.867 447.766 397.173 447.848 397.311 448.088C397.449 448.327 397.367 448.634 397.128 448.772L391.947 451.767C391.708 451.906 391.402 451.824 391.264 451.584Z" fill="white"/>
<path d="M401.627 445.593C401.489 445.354 401.571 445.047 401.81 444.909L406.991 441.914C407.23 441.775 407.536 441.857 407.674 442.097C407.812 442.336 407.73 442.643 407.491 442.781L402.31 445.776C402.071 445.915 401.765 445.833 401.627 445.593Z" fill="white"/>
<path d="M411.99 439.602C411.851 439.362 411.933 439.056 412.173 438.918L417.354 435.922C417.593 435.784 417.899 435.866 418.037 436.106C418.175 436.345 418.093 436.651 417.854 436.79L412.673 439.785C412.433 439.923 412.128 439.841 411.99 439.602Z" fill="white"/>
<path d="M422.352 433.611C422.214 433.371 422.296 433.065 422.535 432.927L427.717 429.931C427.956 429.793 428.262 429.875 428.4 430.115C428.538 430.354 428.456 430.66 428.217 430.799L423.035 433.794C422.796 433.932 422.49 433.85 422.352 433.611Z" fill="white"/>
<path d="M432.715 427.62C432.577 427.38 432.659 427.074 432.898 426.936L438.08 423.94C438.319 423.802 438.625 423.884 438.763 424.123C438.901 424.363 438.819 424.669 438.58 424.807L433.398 427.803C433.159 427.941 432.853 427.859 432.715 427.62Z" fill="white"/>
<path d="M443.078 421.629C442.94 421.389 443.022 421.083 443.261 420.945L448.442 417.949C448.682 417.811 448.987 417.893 449.126 418.132C449.264 418.372 449.182 418.678 448.943 418.816L443.761 421.812C443.522 421.95 443.216 421.868 443.078 421.629Z" fill="white"/>
<path d="M453.441 415.637C453.303 415.398 453.385 415.092 453.624 414.953L458.805 411.958C459.044 411.82 459.35 411.902 459.488 412.141C459.626 412.381 459.544 412.687 459.305 412.825L454.124 415.821C453.885 415.959 453.579 415.877 453.441 415.637Z" fill="white"/>
<path d="M463.804 409.646C463.666 409.407 463.748 409.1 463.987 408.962L469.168 405.967C469.407 405.828 469.713 405.91 469.851 406.15C469.989 406.389 469.907 406.696 469.668 406.834L464.487 409.83C464.248 409.968 463.942 409.886 463.804 409.646Z" fill="white"/>
<path d="M474.167 403.655C474.028 403.416 474.11 403.109 474.35 402.971L479.531 399.976C479.77 399.837 480.076 399.919 480.214 400.159C480.352 400.398 480.27 400.705 480.031 400.843L474.85 403.838C474.61 403.977 474.305 403.895 474.167 403.655Z" fill="white"/>
<path d="M484.529 397.664C484.391 397.424 484.473 397.118 484.712 396.98L489.894 393.984C490.133 393.846 490.439 393.928 490.577 394.168C490.715 394.407 490.633 394.713 490.394 394.852L485.212 397.847C484.973 397.986 484.667 397.903 484.529 397.664Z" fill="white"/>
<path d="M611.07 325.085L614.748 322.958C614.987 322.82 615.069 322.514 614.931 322.274C614.793 322.035 614.487 321.953 614.248 322.091L611.07 323.928V325.085Z" fill="white"/>
<path d="M619.246 319.779C619.108 319.54 619.19 319.233 619.429 319.095L624.611 316.1C624.85 315.961 625.156 316.043 625.294 316.283C625.432 316.522 625.35 316.829 625.111 316.967L619.929 319.963C619.69 320.101 619.384 320.019 619.246 319.779Z" fill="white"/>
<path d="M629.609 313.788C629.471 313.549 629.553 313.242 629.792 313.104L634.973 310.108C635.213 309.97 635.518 310.052 635.656 310.292C635.795 310.531 635.713 310.838 635.473 310.976L630.292 313.971C630.053 314.11 629.747 314.028 629.609 313.788Z" fill="white"/>
<path d="M639.972 307.797C639.834 307.557 639.916 307.251 640.155 307.113L645.336 304.117C645.575 303.979 645.881 304.061 646.019 304.301C646.157 304.54 646.075 304.846 645.836 304.985L640.655 307.98C640.416 308.118 640.11 308.036 639.972 307.797Z" fill="white"/>
<path d="M650.334 301.806C650.196 301.566 650.278 301.26 650.518 301.122L655.699 298.126C655.938 297.988 656.244 298.07 656.382 298.31C656.52 298.549 656.438 298.855 656.199 298.994L651.018 301.989C650.778 302.127 650.473 302.045 650.334 301.806Z" fill="white"/>
<path d="M660.697 295.815C660.559 295.575 660.641 295.269 660.88 295.131L666.062 292.135C666.301 291.997 666.607 292.079 666.745 292.318C666.883 292.558 666.801 292.864 666.562 293.002L661.38 295.998C661.141 296.136 660.835 296.054 660.697 295.815Z" fill="white"/>
<path d="M671.06 289.824C670.922 289.584 671.004 289.278 671.243 289.14L676.425 286.144C676.664 286.006 676.97 286.088 677.108 286.327C677.246 286.567 677.164 286.873 676.925 287.011L671.743 290.007C671.504 290.145 671.198 290.063 671.06 289.824Z" fill="white"/>
<path d="M681.423 283.832C681.285 283.593 681.367 283.287 681.606 283.148L686.787 280.153C687.027 280.015 687.332 280.097 687.471 280.336C687.609 280.576 687.527 280.882 687.288 281.02L682.106 284.016C681.867 284.154 681.561 284.072 681.423 283.832Z" fill="white"/>
<path d="M691.786 277.841C691.648 277.602 691.73 277.296 691.969 277.157L697.15 274.162C697.39 274.023 697.695 274.105 697.833 274.345C697.972 274.584 697.89 274.891 697.65 275.029L692.469 278.025C692.23 278.163 691.924 278.081 691.786 277.841Z" fill="white"/>
<path d="M702.149 271.85C702.011 271.611 702.093 271.304 702.332 271.166L707.513 268.171C707.752 268.032 708.058 268.114 708.196 268.354C708.334 268.593 708.252 268.9 708.013 269.038L702.832 272.033C702.593 272.172 702.287 272.09 702.149 271.85Z" fill="white"/>
<path d="M712.512 265.859C712.373 265.62 712.455 265.313 712.695 265.175L717.876 262.179C718.115 262.041 718.421 262.123 718.559 262.363C718.697 262.602 718.615 262.908 718.376 263.047L713.195 266.042C712.955 266.181 712.65 266.099 712.512 265.859Z" fill="white"/>
<path d="M722.874 259.868C722.736 259.628 722.818 259.322 723.057 259.184L728.239 256.188C728.478 256.05 728.784 256.132 728.922 256.372C729.06 256.611 728.978 256.917 728.739 257.056L723.557 260.051C723.318 260.189 723.012 260.107 722.874 259.868Z" fill="white"/>
<path d="M733.237 253.877C733.099 253.637 733.181 253.331 733.42 253.193L738.602 250.197C738.756 250.108 738.937 250.11 739.084 250.187V251.075L733.92 254.06C733.681 254.198 733.375 254.116 733.237 253.877Z" fill="white"/>
<path d="M859.098 180.534V181.69L863.456 179.171C863.695 179.033 863.777 178.726 863.639 178.487C863.501 178.247 863.195 178.165 862.956 178.304L859.098 180.534Z" fill="white"/>
<path d="M867.954 175.992C867.816 175.752 867.898 175.446 868.137 175.308L873.318 172.312C873.557 172.174 873.863 172.256 874.001 172.496C874.14 172.735 874.058 173.041 873.818 173.18L868.637 176.175C868.398 176.314 868.092 176.231 867.954 175.992Z" fill="white"/>
<path d="M878.317 170.001C878.179 169.761 878.261 169.455 878.5 169.317L883.681 166.321C883.92 166.183 884.226 166.265 884.364 166.505C884.502 166.744 884.42 167.05 884.181 167.189L879 170.184C878.761 170.322 878.455 170.24 878.317 170.001Z" fill="white"/>
<path d="M888.68 164.01C888.542 163.77 888.623 163.464 888.863 163.326L894.044 160.33C894.283 160.192 894.589 160.274 894.727 160.513C894.865 160.753 894.783 161.059 894.544 161.197L889.363 164.193C889.123 164.331 888.818 164.249 888.68 164.01Z" fill="white"/>
<path d="M899.042 158.019C898.904 157.779 898.986 157.473 899.225 157.335L904.407 154.339C904.646 154.201 904.952 154.283 905.09 154.522C905.228 154.762 905.146 155.068 904.907 155.206L899.726 158.202C899.486 158.34 899.18 158.258 899.042 158.019Z" fill="white"/>
<path d="M909.405 152.027C909.267 151.788 909.349 151.482 909.588 151.343L914.77 148.348C915.009 148.21 915.315 148.292 915.453 148.531C915.591 148.771 915.509 149.077 915.27 149.215L910.088 152.211C909.849 152.349 909.543 152.267 909.405 152.027Z" fill="white"/>
<path d="M919.768 146.036C919.63 145.797 919.712 145.491 919.951 145.352L925.133 142.357C925.372 142.218 925.677 142.3 925.816 142.54C925.954 142.779 925.872 143.086 925.633 143.224L920.451 146.22C920.212 146.358 919.906 146.276 919.768 146.036Z" fill="white"/>
<path d="M930.131 140.045C929.993 139.806 930.075 139.499 930.314 139.361L935.495 136.366C935.734 136.227 936.04 136.309 936.178 136.549C936.316 136.788 936.235 137.095 935.995 137.233L930.814 140.228C930.575 140.367 930.269 140.285 930.131 140.045Z" fill="white"/>
<path d="M940.494 134.054C940.356 133.815 940.438 133.508 940.677 133.37L945.858 130.374C946.097 130.236 946.403 130.318 946.541 130.558C946.679 130.797 946.597 131.103 946.358 131.242L941.177 134.237C940.938 134.376 940.632 134.294 940.494 134.054Z" fill="white"/>
<path d="M950.857 128.063C950.718 127.823 950.8 127.517 951.04 127.379L956.221 124.383C956.46 124.245 956.766 124.327 956.904 124.567C957.042 124.806 956.96 125.112 956.721 125.251L951.54 128.246C951.3 128.384 950.995 128.302 950.857 128.063Z" fill="white"/>
<path d="M961.219 122.072C961.081 121.832 961.163 121.526 961.402 121.388L966.584 118.392C966.823 118.254 967.129 118.336 967.267 118.575C967.405 118.815 967.323 119.121 967.084 119.259L961.902 122.255C961.663 122.393 961.357 122.311 961.219 122.072Z" fill="white"/>
<path d="M971.582 116.081C971.444 115.841 971.526 115.535 971.765 115.397L976.947 112.401C977.186 112.263 977.492 112.345 977.63 112.584C977.768 112.824 977.686 113.13 977.447 113.268L972.265 116.264C972.026 116.402 971.72 116.32 971.582 116.081Z" fill="white"/>
<path d="M981.945 110.089C981.807 109.85 981.889 109.544 982.128 109.405L987.309 106.41C987.549 106.272 987.854 106.354 987.993 106.593C988.131 106.833 988.049 107.139 987.81 107.277L982.628 110.273C982.389 110.411 982.083 110.329 981.945 110.089Z" fill="white"/>
<path d="M1112.13 35.4049L1112.16 35.3836C1112.4 35.2453 1112.48 34.9391 1112.35 34.6996C1112.29 34.6076 1112.22 34.5389 1112.13 34.4969V35.4049Z" fill="white"/>
<path d="M1116.66 32.2047C1116.52 31.9652 1116.61 31.659 1116.84 31.5207L1122.03 28.5251C1122.27 28.3869 1122.57 28.4689 1122.71 28.7084C1122.85 28.9479 1122.77 29.2542 1122.53 29.3925L1117.34 32.388C1117.11 32.5263 1116.8 32.4442 1116.66 32.2047Z" fill="white"/>
<path d="M1127.02 26.2136C1126.89 25.9741 1126.97 25.6678 1127.21 25.5296L1132.39 22.534C1132.63 22.3957 1132.93 22.4778 1133.07 22.7173C1133.21 22.9568 1133.13 23.2631 1132.89 23.4013L1127.71 26.3969C1127.47 26.5352 1127.16 26.4531 1127.02 26.2136Z" fill="white"/>
<path d="M1137.39 20.2225C1137.25 19.983 1137.33 19.6767 1137.57 19.5384L1142.75 16.5429C1142.99 16.4046 1143.3 16.4867 1143.43 16.7262C1143.57 16.9657 1143.49 17.2719 1143.25 17.4102L1138.07 20.4058C1137.83 20.544 1137.53 20.462 1137.39 20.2225Z" fill="white"/>
<path d="M1147.75 14.2313C1147.61 13.9918 1147.69 13.6856 1147.93 13.5473L1153.11 10.5517C1153.35 10.4135 1153.66 10.4955 1153.8 10.735C1153.94 10.9745 1153.85 11.2808 1153.61 11.419L1148.43 14.4146C1148.19 14.5529 1147.89 14.4708 1147.75 14.2313Z" fill="white"/>
<path d="M1158.11 8.2402C1157.97 8.0007 1158.06 7.69444 1158.3 7.55618L1163.48 4.56061C1163.72 4.42234 1164.02 4.50439 1164.16 4.74389C1164.3 4.98339 1164.22 5.28965 1163.98 5.42791L1158.8 8.42348C1158.56 8.56175 1158.25 8.4797 1158.11 8.2402Z" fill="white"/>
<path d="M1168.48 2.24906C1168.34 2.00956 1168.42 1.70331 1168.66 1.56504L1171.25 0.0671655C1171.49 -0.0710999 1171.79 0.0109491 1171.93 0.250449C1172.07 0.489948 1171.99 0.796205 1171.75 0.93447L1169.16 2.43235C1168.92 2.57061 1168.61 2.48856 1168.48 2.24906Z" fill="white"/>
</g>
</svg>
