<svg width="28" height="28" viewBox="0 0 28 28" fill="none" xmlns="http://www.w3.org/2000/svg">
<path fill-rule="evenodd" clip-rule="evenodd" d="M25 14C25 20.0751 20.0751 25 14 25C7.92487 25 3 20.0751 3 14C3 7.92487 7.92487 3 14 3C20.0751 3 25 7.92487 25 14ZM14.3746 10.6652L7.39366 13.7355C6.82703 13.9657 6.53016 14.1907 6.50315 14.4107C6.45746 14.7827 6.91382 14.9292 7.53519 15.1287C7.61961 15.1558 7.70707 15.1838 7.79673 15.2136C8.40799 15.4165 9.23013 15.6538 9.65752 15.6632C10.0452 15.6718 10.4779 15.5086 10.9557 15.1736C14.2161 12.9264 15.8992 11.7906 16.0049 11.766C16.0794 11.749 16.1828 11.727 16.2527 11.7906C16.3226 11.8541 16.3155 11.9744 16.3083 12.0067C16.2632 12.2033 14.4741 13.9016 13.547 14.7817C13.2574 15.0566 13.0519 15.2517 13.0099 15.2962C12.9161 15.3957 12.8204 15.4899 12.7285 15.5804C12.1607 16.1392 11.7349 16.5584 12.7521 17.2427L15.4236 19.0748C15.5637 19.1686 15.6975 19.266 15.8278 19.3609C16.3238 19.7219 16.7694 20.0463 17.3199 19.9945C17.64 19.9644 17.9701 19.6574 18.138 18.7414C18.5346 16.5769 19.3141 11.8869 19.4942 9.9543C19.51 9.78495 19.4902 9.56827 19.4742 9.47313C19.4582 9.378 19.425 9.24248 19.3038 9.14216C19.1604 9.02336 18.939 8.99832 18.8399 9.00008C18.3897 9.0082 17.6989 9.25343 14.3746 10.6652Z" fill="white"/>
</svg>
