<svg width="28" height="28" viewBox="0 0 28 28" fill="none" xmlns="http://www.w3.org/2000/svg">
<path fill-rule="evenodd" clip-rule="evenodd" d="M24 14C24 19.5228 19.5228 24 14 24C8.47715 24 4 19.5228 4 14C4 8.47715 8.47715 4 14 4C19.5228 4 24 8.47715 24 14ZM18.3446 12.0155C18.3446 15.0482 16.0932 18.5455 11.9765 18.5455C10.712 18.5455 9.53609 18.1656 8.54546 17.5144C8.72047 17.5358 8.89872 17.5463 9.07931 17.5463C10.128 17.5463 11.0931 17.1798 11.8595 16.5643C10.88 16.5452 10.0537 15.8817 9.76867 14.9701C9.90468 14.9968 10.0449 15.0115 10.1892 15.0115C10.3935 15.0115 10.5913 14.983 10.7793 14.9306C9.7552 14.7202 8.98368 13.792 8.98368 12.6805C8.98368 12.6705 8.98368 12.661 8.98414 12.6515C9.28588 12.8233 9.63079 12.9271 9.99799 12.9385C9.39683 12.5272 9.00178 11.8246 9.00178 11.0282C9.00178 10.6079 9.11273 10.2138 9.30491 9.87487C10.4088 11.2634 12.0582 12.1769 13.9183 12.2725C13.8798 12.1045 13.8603 11.9293 13.8603 11.7494C13.8603 10.4823 14.8625 9.45455 16.0987 9.45455C16.7421 9.45455 17.3238 9.73349 17.7323 10.1795C18.242 10.0767 18.7206 9.88534 19.1533 9.62258C18.9862 10.1586 18.631 10.6079 18.1691 10.8921C18.6217 10.8364 19.0535 10.7136 19.4545 10.5308C19.1551 10.9906 18.7749 11.3948 18.3381 11.7189C18.3427 11.817 18.3446 11.916 18.3446 12.0155Z" fill="white"/>
</svg>
